G04 #@! TF.GenerationSoftware,KiCad,Pcbnew,7.0.2*
G04 #@! TF.CreationDate,2023-05-19T11:13:35+02:00*
G04 #@! TF.ProjectId,baseboard,62617365-626f-4617-9264-2e6b69636164,rev?*
G04 #@! TF.SameCoordinates,Original*
G04 #@! TF.FileFunction,Copper,L2,Bot*
G04 #@! TF.FilePolarity,Positive*
%FSLAX46Y46*%
G04 Gerber Fmt 4.6, Leading zero omitted, Abs format (unit mm)*
G04 Created by KiCad (PCBNEW 7.0.2) date 2023-05-19 11:13:35*
%MOMM*%
%LPD*%
G01*
G04 APERTURE LIST*
G04 #@! TA.AperFunction,ComponentPad*
%ADD10C,7.000000*%
G04 #@! TD*
G04 #@! TA.AperFunction,ComponentPad*
%ADD11R,2.600000X2.600000*%
G04 #@! TD*
G04 #@! TA.AperFunction,ComponentPad*
%ADD12C,2.600000*%
G04 #@! TD*
G04 #@! TA.AperFunction,ComponentPad*
%ADD13O,1.700000X1.700000*%
G04 #@! TD*
G04 #@! TA.AperFunction,ComponentPad*
%ADD14R,1.700000X1.700000*%
G04 #@! TD*
G04 #@! TA.AperFunction,WasherPad*
%ADD15C,3.000000*%
G04 #@! TD*
G04 #@! TA.AperFunction,ComponentPad*
%ADD16C,1.727200*%
G04 #@! TD*
G04 #@! TA.AperFunction,ComponentPad*
%ADD17R,1.727200X1.727200*%
G04 #@! TD*
G04 #@! TA.AperFunction,ViaPad*
%ADD18C,0.800000*%
G04 #@! TD*
G04 #@! TA.AperFunction,Conductor*
%ADD19C,0.250000*%
G04 #@! TD*
G04 APERTURE END LIST*
D10*
X30000000Y-153000000D03*
X110000000Y-55000000D03*
D11*
X105029000Y-143604000D03*
D12*
X105029000Y-138604000D03*
X105029000Y-133604000D03*
D11*
X105207000Y-92757000D03*
D12*
X105207000Y-87757000D03*
X105207000Y-82757000D03*
D13*
X59850000Y-120565000D03*
D14*
X59850000Y-118025000D03*
D13*
X59850000Y-114065000D03*
D14*
X59850000Y-111525000D03*
D13*
X59850000Y-107565000D03*
D14*
X59850000Y-105025000D03*
D10*
X30000000Y-55000000D03*
D11*
X105207000Y-126539000D03*
D12*
X105207000Y-121539000D03*
X105207000Y-116539000D03*
D11*
X33020000Y-66040000D03*
D12*
X33020000Y-71040000D03*
D11*
X105080000Y-109394000D03*
D12*
X105080000Y-104394000D03*
X105080000Y-99394000D03*
D13*
X59875000Y-141690000D03*
D14*
X59875000Y-139150000D03*
D13*
X59875000Y-135190000D03*
D14*
X59875000Y-132650000D03*
D13*
X59875000Y-128690000D03*
D14*
X59875000Y-126150000D03*
D10*
X110000000Y-153000000D03*
D15*
X70902000Y-54655000D03*
X70902000Y-75675000D03*
X101322000Y-54655000D03*
X101322000Y-75675000D03*
D14*
X69983000Y-61431200D03*
D13*
X69983000Y-63971200D03*
X69983000Y-66511200D03*
X69983000Y-69051200D03*
X59850000Y-99440000D03*
D14*
X59850000Y-96900000D03*
D13*
X59850000Y-92940000D03*
D14*
X59850000Y-90400000D03*
D13*
X59850000Y-86440000D03*
D14*
X59850000Y-83900000D03*
D16*
X70104000Y-119906200D03*
X70104000Y-124986200D03*
X90424000Y-122446200D03*
X90424000Y-119906200D03*
X90424000Y-117366200D03*
X90424000Y-114826200D03*
X90424000Y-112286200D03*
X90424000Y-109746200D03*
X90424000Y-107206200D03*
X90424000Y-124986200D03*
X90424000Y-104666200D03*
X90424000Y-102126200D03*
X90424000Y-99586200D03*
X90424000Y-97046200D03*
X90424000Y-94506200D03*
X90424000Y-91966200D03*
X70104000Y-91966200D03*
X70104000Y-94506200D03*
X70104000Y-97046200D03*
X70104000Y-99586200D03*
X70104000Y-102126200D03*
X70104000Y-104666200D03*
X70104000Y-107206200D03*
X70104000Y-109746200D03*
X70104000Y-112286200D03*
D17*
X70104000Y-117366200D03*
D16*
X70104000Y-114826200D03*
X70104000Y-122446200D03*
D18*
X68250000Y-148250000D03*
X71000000Y-153767500D03*
X78232000Y-151003000D03*
X78956500Y-149987000D03*
X70612000Y-155194000D03*
X71882000Y-155956000D03*
X73025000Y-156337000D03*
X46500000Y-79250000D03*
X82250000Y-93250000D03*
X65350000Y-64850000D03*
X63700000Y-68075000D03*
D19*
X78232000Y-115334200D02*
X70104000Y-107206200D01*
X78232000Y-151003000D02*
X78232000Y-115334200D01*
X78956500Y-113518700D02*
X70104000Y-104666200D01*
X78956500Y-149987000D02*
X78956500Y-113518700D01*
X64500000Y-107000000D02*
X64500000Y-132775000D01*
X89235400Y-103477600D02*
X68022400Y-103477600D01*
X68022400Y-103477600D02*
X64500000Y-107000000D01*
X64500000Y-132775000D02*
X62085000Y-135190000D01*
X62085000Y-135190000D02*
X59875000Y-135190000D01*
X90424000Y-104666200D02*
X89235400Y-103477600D01*
X59875000Y-132650000D02*
X58775000Y-132650000D01*
X58100000Y-133325000D02*
X58100000Y-142682000D01*
X58775000Y-132650000D02*
X58100000Y-133325000D01*
X58100000Y-142682000D02*
X70612000Y-155194000D01*
X62875000Y-107511465D02*
X69461465Y-100925000D01*
X59850000Y-114065000D02*
X62875000Y-111040000D01*
X62875000Y-111040000D02*
X62875000Y-107511465D01*
X69461465Y-100925000D02*
X89222800Y-100925000D01*
X89222800Y-100925000D02*
X90424000Y-102126200D01*
X70281000Y-155956000D02*
X71882000Y-155956000D01*
X57650000Y-143325000D02*
X70281000Y-155956000D01*
X59850000Y-111525000D02*
X57650000Y-113725000D01*
X57650000Y-113725000D02*
X57650000Y-143325000D01*
X59850000Y-92940000D02*
X65307600Y-98397600D01*
X89235400Y-98397600D02*
X90424000Y-99586200D01*
X65307600Y-98397600D02*
X89235400Y-98397600D01*
X59850000Y-90400000D02*
X57200000Y-93050000D01*
X72681000Y-156681000D02*
X73025000Y-156337000D01*
X57200000Y-143511396D02*
X70369604Y-156681000D01*
X70369604Y-156681000D02*
X72681000Y-156681000D01*
X57200000Y-93050000D02*
X57200000Y-143511396D01*
X68250000Y-79250000D02*
X82250000Y-93250000D01*
X46500000Y-79250000D02*
X68250000Y-79250000D01*
X65350000Y-64850000D02*
X66228800Y-63971200D01*
X66228800Y-63971200D02*
X69983000Y-63971200D01*
X63700000Y-68075000D02*
X65263800Y-66511200D01*
X65263800Y-66511200D02*
X69983000Y-66511200D01*
G04 #@! TA.AperFunction,Conductor*
G36*
X58413206Y-92823896D02*
G01*
X58469140Y-92865767D01*
X58493401Y-92929270D01*
X58514936Y-93175407D01*
X58551037Y-93310137D01*
X58576097Y-93403663D01*
X58675965Y-93617830D01*
X58811505Y-93811401D01*
X58978599Y-93978495D01*
X59172170Y-94114035D01*
X59386337Y-94213903D01*
X59614592Y-94275063D01*
X59850000Y-94295659D01*
X60085408Y-94275063D01*
X60185873Y-94248143D01*
X60255721Y-94249806D01*
X60305647Y-94280237D01*
X64806796Y-98781387D01*
X64819696Y-98797488D01*
X64870823Y-98845500D01*
X64873620Y-98848211D01*
X64893129Y-98867720D01*
X64896309Y-98870187D01*
X64905171Y-98877755D01*
X64937018Y-98907662D01*
X64954572Y-98917312D01*
X64970836Y-98927996D01*
X64979527Y-98934737D01*
X64986664Y-98940273D01*
X65011509Y-98951024D01*
X65026752Y-98957621D01*
X65037231Y-98962754D01*
X65075508Y-98983797D01*
X65094906Y-98988777D01*
X65113308Y-98995077D01*
X65131704Y-99003038D01*
X65174861Y-99009873D01*
X65186264Y-99012234D01*
X65228581Y-99023100D01*
X65248616Y-99023100D01*
X65268013Y-99024626D01*
X65287796Y-99027760D01*
X65331274Y-99023650D01*
X65342944Y-99023100D01*
X68680122Y-99023100D01*
X68747161Y-99042785D01*
X68792916Y-99095589D01*
X68802860Y-99164747D01*
X68800328Y-99177540D01*
X68753892Y-99360911D01*
X68735224Y-99586199D01*
X68753892Y-99811488D01*
X68753892Y-99811491D01*
X68753893Y-99811493D01*
X68777233Y-99903662D01*
X68809390Y-100030643D01*
X68900198Y-100237666D01*
X68988964Y-100373532D01*
X69009152Y-100440422D01*
X68989973Y-100507607D01*
X68972837Y-100529035D01*
X62491208Y-107010664D01*
X62475110Y-107023561D01*
X62427096Y-107074690D01*
X62424392Y-107077481D01*
X62407628Y-107094245D01*
X62407621Y-107094252D01*
X62404880Y-107096994D01*
X62402499Y-107100062D01*
X62402490Y-107100073D01*
X62402411Y-107100176D01*
X62394842Y-107109037D01*
X62364935Y-107140885D01*
X62355285Y-107158439D01*
X62344609Y-107174693D01*
X62332326Y-107190528D01*
X62314975Y-107230623D01*
X62309838Y-107241109D01*
X62288802Y-107279372D01*
X62283821Y-107298774D01*
X62277520Y-107317176D01*
X62269561Y-107335567D01*
X62262728Y-107378707D01*
X62260360Y-107390139D01*
X62249500Y-107432442D01*
X62249500Y-107452481D01*
X62247973Y-107471879D01*
X62244839Y-107491661D01*
X62248949Y-107535141D01*
X62249499Y-107546808D01*
X62249499Y-110729546D01*
X62229814Y-110796585D01*
X62213180Y-110817227D01*
X61412180Y-111618228D01*
X61350857Y-111651713D01*
X61281166Y-111646729D01*
X61225232Y-111604857D01*
X61200815Y-111539393D01*
X61200499Y-111530547D01*
X61200499Y-110630439D01*
X61200499Y-110627128D01*
X61194091Y-110567517D01*
X61143796Y-110432669D01*
X61057546Y-110317454D01*
X60942331Y-110231204D01*
X60807483Y-110180909D01*
X60747873Y-110174500D01*
X60744550Y-110174500D01*
X58955439Y-110174500D01*
X58955420Y-110174500D01*
X58952128Y-110174501D01*
X58948848Y-110174853D01*
X58948840Y-110174854D01*
X58892515Y-110180909D01*
X58757669Y-110231204D01*
X58642454Y-110317454D01*
X58556204Y-110432668D01*
X58505910Y-110567515D01*
X58505909Y-110567517D01*
X58499500Y-110627127D01*
X58499500Y-110630449D01*
X58499500Y-111939546D01*
X58479815Y-112006585D01*
X58463181Y-112027227D01*
X58037181Y-112453227D01*
X57975858Y-112486712D01*
X57906166Y-112481728D01*
X57850233Y-112439856D01*
X57825816Y-112374392D01*
X57825500Y-112365546D01*
X57825500Y-107565000D01*
X58494340Y-107565000D01*
X58514936Y-107800407D01*
X58559709Y-107967501D01*
X58576097Y-108028663D01*
X58675965Y-108242830D01*
X58811505Y-108436401D01*
X58978599Y-108603495D01*
X59172170Y-108739035D01*
X59386337Y-108838903D01*
X59614592Y-108900063D01*
X59850000Y-108920659D01*
X60085408Y-108900063D01*
X60313663Y-108838903D01*
X60527830Y-108739035D01*
X60721401Y-108603495D01*
X60888495Y-108436401D01*
X61024035Y-108242830D01*
X61123903Y-108028663D01*
X61185063Y-107800408D01*
X61205659Y-107565000D01*
X61185063Y-107329592D01*
X61123903Y-107101337D01*
X61024035Y-106887171D01*
X60888495Y-106693599D01*
X60766181Y-106571285D01*
X60732696Y-106509962D01*
X60737680Y-106440270D01*
X60779552Y-106384337D01*
X60810528Y-106367422D01*
X60942089Y-106318352D01*
X61057188Y-106232188D01*
X61143352Y-106117089D01*
X61193599Y-105982371D01*
X61199645Y-105926132D01*
X61200000Y-105919518D01*
X61200000Y-105275000D01*
X60283686Y-105275000D01*
X60309493Y-105234844D01*
X60350000Y-105096889D01*
X60350000Y-104953111D01*
X60309493Y-104815156D01*
X60283686Y-104775000D01*
X61200000Y-104775000D01*
X61200000Y-104130481D01*
X61199645Y-104123867D01*
X61193599Y-104067628D01*
X61143352Y-103932910D01*
X61057188Y-103817811D01*
X60942089Y-103731647D01*
X60807371Y-103681400D01*
X60751132Y-103675354D01*
X60744518Y-103675000D01*
X60100000Y-103675000D01*
X60100000Y-104589498D01*
X59992315Y-104540320D01*
X59885763Y-104525000D01*
X59814237Y-104525000D01*
X59707685Y-104540320D01*
X59600000Y-104589498D01*
X59600000Y-103675000D01*
X58955482Y-103675000D01*
X58948867Y-103675354D01*
X58892628Y-103681400D01*
X58757910Y-103731647D01*
X58642811Y-103817811D01*
X58556647Y-103932910D01*
X58506400Y-104067628D01*
X58500354Y-104123867D01*
X58500000Y-104130481D01*
X58500000Y-104775000D01*
X59416314Y-104775000D01*
X59390507Y-104815156D01*
X59350000Y-104953111D01*
X59350000Y-105096889D01*
X59390507Y-105234844D01*
X59416314Y-105275000D01*
X58500000Y-105275000D01*
X58500000Y-105919518D01*
X58500354Y-105926132D01*
X58506400Y-105982371D01*
X58556647Y-106117089D01*
X58642811Y-106232188D01*
X58757911Y-106318352D01*
X58889471Y-106367422D01*
X58945404Y-106409294D01*
X58969821Y-106474758D01*
X58954969Y-106543031D01*
X58933819Y-106571285D01*
X58811503Y-106693601D01*
X58675965Y-106887170D01*
X58576097Y-107101336D01*
X58514936Y-107329592D01*
X58494340Y-107565000D01*
X57825500Y-107565000D01*
X57825500Y-99439999D01*
X58494340Y-99439999D01*
X58514936Y-99675407D01*
X58551399Y-99811488D01*
X58576097Y-99903663D01*
X58675965Y-100117830D01*
X58811505Y-100311401D01*
X58978599Y-100478495D01*
X59172170Y-100614035D01*
X59386337Y-100713903D01*
X59614591Y-100775063D01*
X59614592Y-100775063D01*
X59849999Y-100795659D01*
X59849999Y-100795658D01*
X59850000Y-100795659D01*
X60085408Y-100775063D01*
X60313663Y-100713903D01*
X60527830Y-100614035D01*
X60721401Y-100478495D01*
X60888495Y-100311401D01*
X61024035Y-100117830D01*
X61123903Y-99903663D01*
X61185063Y-99675408D01*
X61205659Y-99440000D01*
X61185063Y-99204592D01*
X61123903Y-98976337D01*
X61024035Y-98762171D01*
X60888495Y-98568599D01*
X60766181Y-98446285D01*
X60732696Y-98384962D01*
X60737680Y-98315270D01*
X60779552Y-98259337D01*
X60810528Y-98242422D01*
X60942089Y-98193352D01*
X61057188Y-98107188D01*
X61143352Y-97992089D01*
X61193599Y-97857371D01*
X61199645Y-97801132D01*
X61200000Y-97794518D01*
X61200000Y-97150000D01*
X60283686Y-97150000D01*
X60309493Y-97109844D01*
X60350000Y-96971889D01*
X60350000Y-96828111D01*
X60309493Y-96690156D01*
X60283686Y-96650000D01*
X61200000Y-96650000D01*
X61200000Y-96005481D01*
X61199645Y-95998867D01*
X61193599Y-95942628D01*
X61143352Y-95807910D01*
X61057188Y-95692811D01*
X60942089Y-95606647D01*
X60807371Y-95556400D01*
X60751132Y-95550354D01*
X60744518Y-95550000D01*
X60100000Y-95550000D01*
X60100000Y-96464498D01*
X59992315Y-96415320D01*
X59885763Y-96400000D01*
X59814237Y-96400000D01*
X59707685Y-96415320D01*
X59600000Y-96464498D01*
X59600000Y-95550000D01*
X58955482Y-95550000D01*
X58948867Y-95550354D01*
X58892628Y-95556400D01*
X58757910Y-95606647D01*
X58642811Y-95692811D01*
X58556647Y-95807910D01*
X58506400Y-95942628D01*
X58500354Y-95998867D01*
X58500000Y-96005481D01*
X58500000Y-96650000D01*
X59416314Y-96650000D01*
X59390507Y-96690156D01*
X59350000Y-96828111D01*
X59350000Y-96971889D01*
X59390507Y-97109844D01*
X59416314Y-97150000D01*
X58500000Y-97150000D01*
X58500000Y-97794518D01*
X58500354Y-97801132D01*
X58506400Y-97857371D01*
X58556647Y-97992089D01*
X58642811Y-98107188D01*
X58757911Y-98193352D01*
X58889471Y-98242422D01*
X58945404Y-98284294D01*
X58969821Y-98349758D01*
X58954969Y-98418031D01*
X58933819Y-98446285D01*
X58811503Y-98568601D01*
X58675965Y-98762170D01*
X58576097Y-98976336D01*
X58514936Y-99204592D01*
X58494340Y-99439999D01*
X57825500Y-99439999D01*
X57825500Y-93360452D01*
X57845185Y-93293413D01*
X57861819Y-93272771D01*
X58060917Y-93073673D01*
X58282194Y-92852395D01*
X58343515Y-92818912D01*
X58413206Y-92823896D01*
G37*
G04 #@! TD.AperFunction*
G04 #@! TA.AperFunction,Conductor*
G36*
X63793833Y-107579735D02*
G01*
X63849766Y-107621607D01*
X63874183Y-107687071D01*
X63874499Y-107695917D01*
X63874499Y-132464547D01*
X63854814Y-132531586D01*
X63838180Y-132552228D01*
X61862228Y-134528181D01*
X61800905Y-134561666D01*
X61774547Y-134564500D01*
X61150226Y-134564500D01*
X61083187Y-134544815D01*
X61048651Y-134511623D01*
X60913494Y-134318598D01*
X60791569Y-134196673D01*
X60758084Y-134135350D01*
X60763068Y-134065658D01*
X60804940Y-134009725D01*
X60835915Y-133992810D01*
X60967331Y-133943796D01*
X61082546Y-133857546D01*
X61168796Y-133742331D01*
X61219091Y-133607483D01*
X61225500Y-133547873D01*
X61225499Y-131752128D01*
X61219091Y-131692517D01*
X61168796Y-131557669D01*
X61082546Y-131442454D01*
X60967331Y-131356204D01*
X60832483Y-131305909D01*
X60772873Y-131299500D01*
X60769550Y-131299500D01*
X58980439Y-131299500D01*
X58980420Y-131299500D01*
X58977128Y-131299501D01*
X58973848Y-131299853D01*
X58973840Y-131299854D01*
X58917515Y-131305909D01*
X58782669Y-131356204D01*
X58667454Y-131442454D01*
X58581204Y-131557668D01*
X58530910Y-131692515D01*
X58530909Y-131692517D01*
X58524500Y-131752127D01*
X58524500Y-131755449D01*
X58524500Y-131995657D01*
X58504815Y-132062696D01*
X58473368Y-132095988D01*
X58472367Y-132096715D01*
X58406556Y-132120183D01*
X58338505Y-132104346D01*
X58289819Y-132054231D01*
X58275499Y-131996384D01*
X58275499Y-128742945D01*
X58291147Y-128689653D01*
X58506679Y-128689653D01*
X58518476Y-128708010D01*
X58523027Y-128732137D01*
X58539936Y-128925407D01*
X58584709Y-129092501D01*
X58601097Y-129153663D01*
X58700965Y-129367830D01*
X58836505Y-129561401D01*
X59003599Y-129728495D01*
X59197170Y-129864035D01*
X59411337Y-129963903D01*
X59639592Y-130025063D01*
X59875000Y-130045659D01*
X60110408Y-130025063D01*
X60338663Y-129963903D01*
X60552830Y-129864035D01*
X60746401Y-129728495D01*
X60913495Y-129561401D01*
X61049035Y-129367830D01*
X61148903Y-129153663D01*
X61210063Y-128925408D01*
X61230659Y-128690000D01*
X61210063Y-128454592D01*
X61148903Y-128226337D01*
X61049035Y-128012171D01*
X60913495Y-127818599D01*
X60791181Y-127696284D01*
X60757696Y-127634962D01*
X60762680Y-127565270D01*
X60804552Y-127509337D01*
X60835528Y-127492422D01*
X60967089Y-127443352D01*
X61082188Y-127357188D01*
X61168352Y-127242089D01*
X61218599Y-127107371D01*
X61224645Y-127051132D01*
X61225000Y-127044518D01*
X61225000Y-126400000D01*
X60308686Y-126400000D01*
X60334493Y-126359844D01*
X60375000Y-126221889D01*
X60375000Y-126078111D01*
X60334493Y-125940156D01*
X60308686Y-125900000D01*
X61225000Y-125900000D01*
X61225000Y-125255481D01*
X61224645Y-125248867D01*
X61218599Y-125192628D01*
X61168352Y-125057910D01*
X61082188Y-124942811D01*
X60967089Y-124856647D01*
X60832371Y-124806400D01*
X60776132Y-124800354D01*
X60769518Y-124800000D01*
X60125000Y-124800000D01*
X60125000Y-125714498D01*
X60017315Y-125665320D01*
X59910763Y-125650000D01*
X59839237Y-125650000D01*
X59732685Y-125665320D01*
X59625000Y-125714498D01*
X59625000Y-124800000D01*
X58980482Y-124800000D01*
X58973867Y-124800354D01*
X58917628Y-124806400D01*
X58782910Y-124856647D01*
X58667811Y-124942811D01*
X58581647Y-125057910D01*
X58531400Y-125192628D01*
X58525354Y-125248867D01*
X58525000Y-125255481D01*
X58525000Y-125900000D01*
X59441314Y-125900000D01*
X59415507Y-125940156D01*
X59375000Y-126078111D01*
X59375000Y-126221889D01*
X59415507Y-126359844D01*
X59441314Y-126400000D01*
X58525000Y-126400000D01*
X58525000Y-127044518D01*
X58525354Y-127051132D01*
X58531400Y-127107371D01*
X58581647Y-127242089D01*
X58667811Y-127357188D01*
X58782911Y-127443352D01*
X58914471Y-127492422D01*
X58970404Y-127534294D01*
X58994821Y-127599758D01*
X58979969Y-127668031D01*
X58958819Y-127696285D01*
X58836503Y-127818601D01*
X58700965Y-128012170D01*
X58601097Y-128226336D01*
X58539936Y-128454592D01*
X58523027Y-128647862D01*
X58506679Y-128689653D01*
X58291147Y-128689653D01*
X58291716Y-128687715D01*
X58277930Y-128661486D01*
X58275499Y-128637054D01*
X58275499Y-123219737D01*
X58275499Y-120848687D01*
X58295184Y-120781651D01*
X58347988Y-120735896D01*
X58417146Y-120725952D01*
X58480702Y-120754977D01*
X58518476Y-120813755D01*
X58519274Y-120816596D01*
X58576097Y-121028664D01*
X58610416Y-121102261D01*
X58675965Y-121242830D01*
X58811505Y-121436401D01*
X58978599Y-121603495D01*
X59172170Y-121739035D01*
X59386337Y-121838903D01*
X59614592Y-121900063D01*
X59850000Y-121920659D01*
X60085408Y-121900063D01*
X60313663Y-121838903D01*
X60527830Y-121739035D01*
X60721401Y-121603495D01*
X60888495Y-121436401D01*
X61024035Y-121242830D01*
X61123903Y-121028663D01*
X61185063Y-120800408D01*
X61205659Y-120565000D01*
X61190811Y-120395296D01*
X61185063Y-120329592D01*
X61172125Y-120281308D01*
X61123903Y-120101337D01*
X61024035Y-119887171D01*
X60888495Y-119693599D01*
X60766180Y-119571285D01*
X60732696Y-119509962D01*
X60737680Y-119440270D01*
X60779552Y-119384337D01*
X60810528Y-119367422D01*
X60942089Y-119318352D01*
X61057188Y-119232188D01*
X61143352Y-119117089D01*
X61193599Y-118982371D01*
X61199645Y-118926132D01*
X61200000Y-118919518D01*
X61200000Y-118275000D01*
X60283686Y-118275000D01*
X60309493Y-118234844D01*
X60350000Y-118096889D01*
X60350000Y-117953111D01*
X60309493Y-117815156D01*
X60283686Y-117775000D01*
X61200000Y-117775000D01*
X61200000Y-117130481D01*
X61199645Y-117123867D01*
X61193599Y-117067628D01*
X61143352Y-116932910D01*
X61057188Y-116817811D01*
X60942089Y-116731647D01*
X60807371Y-116681400D01*
X60751132Y-116675354D01*
X60744518Y-116675000D01*
X60100000Y-116675000D01*
X60100000Y-117589498D01*
X59992315Y-117540320D01*
X59885763Y-117525000D01*
X59814237Y-117525000D01*
X59707685Y-117540320D01*
X59600000Y-117589498D01*
X59600000Y-116675000D01*
X58955482Y-116675000D01*
X58948867Y-116675354D01*
X58892628Y-116681400D01*
X58757910Y-116731647D01*
X58642811Y-116817811D01*
X58556645Y-116932913D01*
X58515680Y-117042744D01*
X58473809Y-117098678D01*
X58408344Y-117123094D01*
X58340071Y-117108242D01*
X58290666Y-117058836D01*
X58275499Y-116999413D01*
X58275499Y-114348688D01*
X58295184Y-114281653D01*
X58347988Y-114235898D01*
X58417146Y-114225954D01*
X58480702Y-114254979D01*
X58518476Y-114313757D01*
X58519274Y-114316598D01*
X58576097Y-114528662D01*
X58576097Y-114528663D01*
X58675965Y-114742830D01*
X58811505Y-114936401D01*
X58978599Y-115103495D01*
X59172170Y-115239035D01*
X59386337Y-115338903D01*
X59614592Y-115400063D01*
X59850000Y-115420659D01*
X60085408Y-115400063D01*
X60313663Y-115338903D01*
X60527830Y-115239035D01*
X60721401Y-115103495D01*
X60888495Y-114936401D01*
X61024035Y-114742830D01*
X61123903Y-114528663D01*
X61185063Y-114300408D01*
X61205659Y-114065000D01*
X61185063Y-113829592D01*
X61158143Y-113729125D01*
X61159806Y-113659276D01*
X61190235Y-113609353D01*
X63258789Y-111540800D01*
X63274885Y-111527906D01*
X63276873Y-111525787D01*
X63276877Y-111525786D01*
X63322949Y-111476723D01*
X63325534Y-111474055D01*
X63345120Y-111454471D01*
X63347585Y-111451292D01*
X63355167Y-111442416D01*
X63385062Y-111410582D01*
X63394712Y-111393027D01*
X63405400Y-111376757D01*
X63417671Y-111360938D01*
X63417673Y-111360936D01*
X63435026Y-111320832D01*
X63440157Y-111310362D01*
X63461197Y-111272092D01*
X63466175Y-111252699D01*
X63472481Y-111234282D01*
X63474018Y-111230728D01*
X63480438Y-111215896D01*
X63487272Y-111172745D01*
X63489635Y-111161331D01*
X63500500Y-111119019D01*
X63500500Y-111098982D01*
X63502027Y-111079584D01*
X63502589Y-111076036D01*
X63505160Y-111059804D01*
X63501050Y-111016324D01*
X63500500Y-111004655D01*
X63500500Y-107821916D01*
X63520185Y-107754877D01*
X63536814Y-107734240D01*
X63662820Y-107608234D01*
X63724141Y-107574751D01*
X63793833Y-107579735D01*
G37*
G04 #@! TD.AperFunction*
G04 #@! TA.AperFunction,Conductor*
G36*
X114942539Y-50020185D02*
G01*
X114988294Y-50072989D01*
X114999500Y-50124500D01*
X114999500Y-157875500D01*
X114979815Y-157942539D01*
X114927011Y-157988294D01*
X114875500Y-157999500D01*
X25124500Y-157999500D01*
X25057461Y-157979815D01*
X25011706Y-157927011D01*
X25000500Y-157875500D01*
X25000500Y-153003033D01*
X25995325Y-153003033D01*
X26014310Y-153389500D01*
X26014906Y-153395553D01*
X26071681Y-153778294D01*
X26072867Y-153784253D01*
X26166882Y-154159586D01*
X26168649Y-154165409D01*
X26298995Y-154529701D01*
X26301327Y-154535334D01*
X26466758Y-154885108D01*
X26469629Y-154890477D01*
X26668549Y-155222355D01*
X26671917Y-155227396D01*
X26902417Y-155538189D01*
X26906275Y-155542891D01*
X27000068Y-155646376D01*
X27000069Y-155646376D01*
X28061418Y-154585026D01*
X28069908Y-154596711D01*
X28285249Y-154826025D01*
X28417838Y-154935712D01*
X27353622Y-155999929D01*
X27353622Y-155999930D01*
X27457108Y-156093724D01*
X27461810Y-156097582D01*
X27772603Y-156328082D01*
X27777644Y-156331450D01*
X28109522Y-156530370D01*
X28114891Y-156533241D01*
X28464665Y-156698672D01*
X28470298Y-156701004D01*
X28834590Y-156831350D01*
X28840413Y-156833117D01*
X29215746Y-156927132D01*
X29221705Y-156928318D01*
X29604446Y-156985093D01*
X29610499Y-156985689D01*
X29996967Y-157004675D01*
X30003033Y-157004675D01*
X30389500Y-156985689D01*
X30395553Y-156985093D01*
X30778294Y-156928318D01*
X30784253Y-156927132D01*
X31159586Y-156833117D01*
X31165409Y-156831350D01*
X31529701Y-156701004D01*
X31535334Y-156698672D01*
X31885108Y-156533241D01*
X31890477Y-156530370D01*
X32222355Y-156331450D01*
X32227396Y-156328082D01*
X32538189Y-156097582D01*
X32542880Y-156093733D01*
X32646376Y-155999929D01*
X31582160Y-154935713D01*
X31714751Y-154826025D01*
X31930092Y-154596711D01*
X31938580Y-154585027D01*
X32999929Y-155646376D01*
X33093733Y-155542880D01*
X33097582Y-155538189D01*
X33328082Y-155227396D01*
X33331450Y-155222355D01*
X33530370Y-154890477D01*
X33533241Y-154885108D01*
X33698672Y-154535334D01*
X33701004Y-154529701D01*
X33831350Y-154165409D01*
X33833117Y-154159586D01*
X33927132Y-153784253D01*
X33928318Y-153778294D01*
X33985093Y-153395553D01*
X33985689Y-153389500D01*
X34004675Y-153003033D01*
X34004675Y-152996966D01*
X33985689Y-152610499D01*
X33985093Y-152604446D01*
X33928318Y-152221705D01*
X33927132Y-152215746D01*
X33833117Y-151840413D01*
X33831350Y-151834590D01*
X33701004Y-151470298D01*
X33698672Y-151464665D01*
X33533241Y-151114891D01*
X33530370Y-151109522D01*
X33331450Y-150777644D01*
X33328082Y-150772603D01*
X33097582Y-150461810D01*
X33093724Y-150457108D01*
X32999930Y-150353622D01*
X32999929Y-150353622D01*
X31938579Y-151414971D01*
X31930092Y-151403289D01*
X31714751Y-151173975D01*
X31582159Y-151064285D01*
X32646376Y-150000069D01*
X32646376Y-150000068D01*
X32542891Y-149906275D01*
X32538189Y-149902417D01*
X32227396Y-149671917D01*
X32222355Y-149668549D01*
X31890477Y-149469629D01*
X31885108Y-149466758D01*
X31535334Y-149301327D01*
X31529701Y-149298995D01*
X31165409Y-149168649D01*
X31159586Y-149166882D01*
X30784253Y-149072867D01*
X30778294Y-149071681D01*
X30395553Y-149014906D01*
X30389500Y-149014310D01*
X30003033Y-148995325D01*
X29996967Y-148995325D01*
X29610499Y-149014310D01*
X29604446Y-149014906D01*
X29221705Y-149071681D01*
X29215746Y-149072867D01*
X28840413Y-149166882D01*
X28834590Y-149168649D01*
X28470298Y-149298995D01*
X28464665Y-149301327D01*
X28114891Y-149466758D01*
X28109522Y-149469629D01*
X27777644Y-149668549D01*
X27772603Y-149671917D01*
X27461807Y-149902418D01*
X27457105Y-149906277D01*
X27353622Y-150000068D01*
X27353622Y-150000069D01*
X28417839Y-151064286D01*
X28285249Y-151173975D01*
X28069908Y-151403289D01*
X28061419Y-151414972D01*
X27000069Y-150353622D01*
X27000068Y-150353622D01*
X26906277Y-150457105D01*
X26902418Y-150461807D01*
X26671917Y-150772603D01*
X26668549Y-150777644D01*
X26469629Y-151109522D01*
X26466758Y-151114891D01*
X26301327Y-151464665D01*
X26298995Y-151470298D01*
X26168649Y-151834590D01*
X26166882Y-151840413D01*
X26072867Y-152215746D01*
X26071681Y-152221705D01*
X26014906Y-152604446D01*
X26014310Y-152610499D01*
X25995325Y-152996966D01*
X25995325Y-153003033D01*
X25000500Y-153003033D01*
X25000500Y-141274334D01*
X29374500Y-141274334D01*
X29415429Y-141519615D01*
X29496170Y-141754805D01*
X29496172Y-141754810D01*
X29588495Y-141925408D01*
X29614529Y-141973514D01*
X29683331Y-142061910D01*
X29767262Y-142169744D01*
X29950215Y-142338164D01*
X30158393Y-142474173D01*
X30386119Y-142574063D01*
X30627179Y-142635108D01*
X30812933Y-142650500D01*
X30815503Y-142650500D01*
X30934497Y-142650500D01*
X30937067Y-142650500D01*
X31122821Y-142635108D01*
X31363881Y-142574063D01*
X31591607Y-142474173D01*
X31799785Y-142338164D01*
X31982738Y-142169744D01*
X32135474Y-141973509D01*
X32253828Y-141754810D01*
X32334571Y-141519614D01*
X32375500Y-141274335D01*
X32375500Y-141025665D01*
X32334571Y-140780386D01*
X32253828Y-140545190D01*
X32135474Y-140326491D01*
X32135471Y-140326487D01*
X32135470Y-140326485D01*
X32033650Y-140195667D01*
X31982738Y-140130256D01*
X31799785Y-139961836D01*
X31591607Y-139825827D01*
X31591604Y-139825825D01*
X31466523Y-139770960D01*
X31363881Y-139725937D01*
X31183866Y-139680351D01*
X31122822Y-139664892D01*
X31088854Y-139662077D01*
X30937067Y-139649500D01*
X30812933Y-139649500D01*
X30695111Y-139659262D01*
X30627177Y-139664892D01*
X30505086Y-139695810D01*
X30386119Y-139725937D01*
X30386116Y-139725938D01*
X30386117Y-139725938D01*
X30158395Y-139825825D01*
X30019607Y-139916499D01*
X29950215Y-139961836D01*
X29860399Y-140044518D01*
X29767259Y-140130259D01*
X29614529Y-140326485D01*
X29496170Y-140545194D01*
X29415429Y-140780384D01*
X29374500Y-141025665D01*
X29374500Y-141274334D01*
X25000500Y-141274334D01*
X25000500Y-127274334D01*
X29374500Y-127274334D01*
X29415429Y-127519615D01*
X29476080Y-127696285D01*
X29496172Y-127754810D01*
X29569405Y-127890132D01*
X29614529Y-127973514D01*
X29698259Y-128081089D01*
X29767262Y-128169744D01*
X29950215Y-128338164D01*
X30158393Y-128474173D01*
X30386119Y-128574063D01*
X30627179Y-128635108D01*
X30812933Y-128650500D01*
X30815503Y-128650500D01*
X30934497Y-128650500D01*
X30937067Y-128650500D01*
X31122821Y-128635108D01*
X31363881Y-128574063D01*
X31591607Y-128474173D01*
X31799785Y-128338164D01*
X31982738Y-128169744D01*
X32135474Y-127973509D01*
X32253828Y-127754810D01*
X32334571Y-127519614D01*
X32375500Y-127274335D01*
X32375500Y-127025665D01*
X32334571Y-126780386D01*
X32253828Y-126545190D01*
X32135474Y-126326491D01*
X32135471Y-126326487D01*
X32135470Y-126326485D01*
X32027639Y-126187945D01*
X31982738Y-126130256D01*
X31799785Y-125961836D01*
X31591607Y-125825827D01*
X31591604Y-125825825D01*
X31466523Y-125770960D01*
X31363881Y-125725937D01*
X31183866Y-125680351D01*
X31122822Y-125664892D01*
X31088854Y-125662077D01*
X30937067Y-125649500D01*
X30812933Y-125649500D01*
X30695111Y-125659262D01*
X30627177Y-125664892D01*
X30505086Y-125695810D01*
X30386119Y-125725937D01*
X30386116Y-125725938D01*
X30386117Y-125725938D01*
X30158395Y-125825825D01*
X30019607Y-125916499D01*
X29950215Y-125961836D01*
X29916105Y-125993237D01*
X29767259Y-126130259D01*
X29614529Y-126326485D01*
X29496170Y-126545194D01*
X29415429Y-126780384D01*
X29374500Y-127025665D01*
X29374500Y-127274334D01*
X25000500Y-127274334D01*
X25000500Y-120149334D01*
X29349500Y-120149334D01*
X29390429Y-120394615D01*
X29471170Y-120629805D01*
X29471172Y-120629810D01*
X29563495Y-120800408D01*
X29589529Y-120848514D01*
X29639908Y-120913240D01*
X29742262Y-121044744D01*
X29925215Y-121213164D01*
X30133393Y-121349173D01*
X30361119Y-121449063D01*
X30602179Y-121510108D01*
X30787933Y-121525500D01*
X30790503Y-121525500D01*
X30909497Y-121525500D01*
X30912067Y-121525500D01*
X31097821Y-121510108D01*
X31338881Y-121449063D01*
X31566607Y-121349173D01*
X31774785Y-121213164D01*
X31957738Y-121044744D01*
X32110474Y-120848509D01*
X32228828Y-120629810D01*
X32309571Y-120394614D01*
X32350500Y-120149335D01*
X32350500Y-119900665D01*
X32309571Y-119655386D01*
X32228828Y-119420190D01*
X32110474Y-119201491D01*
X32110471Y-119201487D01*
X32110470Y-119201485D01*
X31957740Y-119005259D01*
X31957738Y-119005256D01*
X31774785Y-118836836D01*
X31566607Y-118700827D01*
X31566604Y-118700825D01*
X31419272Y-118636200D01*
X31338881Y-118600937D01*
X31158866Y-118555351D01*
X31097822Y-118539892D01*
X31063854Y-118537077D01*
X30912067Y-118524500D01*
X30787933Y-118524500D01*
X30670111Y-118534262D01*
X30602177Y-118539892D01*
X30513834Y-118562264D01*
X30361119Y-118600937D01*
X30361116Y-118600938D01*
X30361117Y-118600938D01*
X30133395Y-118700825D01*
X30005866Y-118784144D01*
X29925215Y-118836836D01*
X29835399Y-118919518D01*
X29742259Y-119005259D01*
X29589529Y-119201485D01*
X29471170Y-119420194D01*
X29390429Y-119655384D01*
X29349500Y-119900665D01*
X29349500Y-120149334D01*
X25000500Y-120149334D01*
X25000500Y-106149335D01*
X29349500Y-106149335D01*
X29359513Y-106209341D01*
X29390429Y-106394615D01*
X29445399Y-106554737D01*
X29471172Y-106629810D01*
X29589526Y-106848509D01*
X29589529Y-106848514D01*
X29692579Y-106980911D01*
X29742262Y-107044744D01*
X29925215Y-107213164D01*
X30133393Y-107349173D01*
X30361119Y-107449063D01*
X30602179Y-107510108D01*
X30787933Y-107525500D01*
X30790503Y-107525500D01*
X30909497Y-107525500D01*
X30912067Y-107525500D01*
X31097821Y-107510108D01*
X31338881Y-107449063D01*
X31566607Y-107349173D01*
X31774785Y-107213164D01*
X31957738Y-107044744D01*
X32110474Y-106848509D01*
X32228828Y-106629810D01*
X32309571Y-106394614D01*
X32350500Y-106149335D01*
X32350500Y-105900665D01*
X32309571Y-105655386D01*
X32228828Y-105420190D01*
X32110474Y-105201491D01*
X32110471Y-105201487D01*
X32110470Y-105201485D01*
X32008649Y-105070667D01*
X31957738Y-105005256D01*
X31774785Y-104836836D01*
X31566607Y-104700827D01*
X31566604Y-104700825D01*
X31441523Y-104645960D01*
X31338881Y-104600937D01*
X31158866Y-104555351D01*
X31097822Y-104539892D01*
X31063854Y-104537077D01*
X30912067Y-104524500D01*
X30787933Y-104524500D01*
X30670111Y-104534262D01*
X30602177Y-104539892D01*
X30480086Y-104570810D01*
X30361119Y-104600937D01*
X30361116Y-104600938D01*
X30361117Y-104600938D01*
X30133395Y-104700825D01*
X30019862Y-104775000D01*
X29925215Y-104836836D01*
X29925213Y-104836837D01*
X29925214Y-104836837D01*
X29742259Y-105005259D01*
X29589529Y-105201485D01*
X29471170Y-105420194D01*
X29390429Y-105655384D01*
X29361768Y-105827145D01*
X29349500Y-105900665D01*
X29349500Y-106149335D01*
X25000500Y-106149335D01*
X25000500Y-99024335D01*
X29349500Y-99024335D01*
X29366281Y-99124899D01*
X29390429Y-99269615D01*
X29471170Y-99504805D01*
X29471172Y-99504810D01*
X29563495Y-99675408D01*
X29589529Y-99723514D01*
X29725036Y-99897612D01*
X29742262Y-99919744D01*
X29925215Y-100088164D01*
X30133393Y-100224173D01*
X30361119Y-100324063D01*
X30602179Y-100385108D01*
X30787933Y-100400500D01*
X30790503Y-100400500D01*
X30909497Y-100400500D01*
X30912067Y-100400500D01*
X31097821Y-100385108D01*
X31338881Y-100324063D01*
X31566607Y-100224173D01*
X31774785Y-100088164D01*
X31957738Y-99919744D01*
X32110474Y-99723509D01*
X32228828Y-99504810D01*
X32309571Y-99269614D01*
X32350500Y-99024335D01*
X32350500Y-98775665D01*
X32309571Y-98530386D01*
X32228828Y-98295190D01*
X32110474Y-98076491D01*
X32110471Y-98076487D01*
X32110470Y-98076485D01*
X31957740Y-97880259D01*
X31957738Y-97880256D01*
X31774785Y-97711836D01*
X31566607Y-97575827D01*
X31566604Y-97575825D01*
X31441523Y-97520960D01*
X31338881Y-97475937D01*
X31158866Y-97430351D01*
X31097822Y-97414892D01*
X31063854Y-97412077D01*
X30912067Y-97399500D01*
X30787933Y-97399500D01*
X30670111Y-97409262D01*
X30602177Y-97414892D01*
X30480087Y-97445810D01*
X30361119Y-97475937D01*
X30361116Y-97475938D01*
X30361117Y-97475938D01*
X30133395Y-97575825D01*
X29994607Y-97666499D01*
X29925215Y-97711836D01*
X29796476Y-97830349D01*
X29742259Y-97880259D01*
X29589529Y-98076485D01*
X29471170Y-98295194D01*
X29390429Y-98530384D01*
X29354538Y-98745475D01*
X29349500Y-98775665D01*
X29349500Y-99024335D01*
X25000500Y-99024335D01*
X25000500Y-93030196D01*
X56569840Y-93030196D01*
X56572822Y-93061742D01*
X56573950Y-93073673D01*
X56574500Y-93085343D01*
X56574500Y-143428652D01*
X56572235Y-143449162D01*
X56574439Y-143519268D01*
X56574500Y-143523163D01*
X56574500Y-143550746D01*
X56574988Y-143554615D01*
X56574989Y-143554621D01*
X56575004Y-143554739D01*
X56575918Y-143566363D01*
X56577290Y-143610022D01*
X56582879Y-143629256D01*
X56586825Y-143648312D01*
X56589335Y-143668188D01*
X56605414Y-143708800D01*
X56609197Y-143719847D01*
X56621382Y-143761787D01*
X56631580Y-143779031D01*
X56640136Y-143796496D01*
X56647514Y-143815128D01*
X56647515Y-143815129D01*
X56673180Y-143850455D01*
X56679593Y-143860218D01*
X56701826Y-143897812D01*
X56701829Y-143897815D01*
X56701830Y-143897816D01*
X56715995Y-143911981D01*
X56728627Y-143926771D01*
X56740406Y-143942983D01*
X56774058Y-143970822D01*
X56782699Y-143978685D01*
X69868801Y-157064787D01*
X69881702Y-157080889D01*
X69883816Y-157082874D01*
X69883818Y-157082877D01*
X69924575Y-157121151D01*
X69932844Y-157128916D01*
X69935640Y-157131626D01*
X69955134Y-157151120D01*
X69958219Y-157153513D01*
X69958305Y-157153580D01*
X69967177Y-157161158D01*
X69999022Y-157191062D01*
X70016578Y-157200714D01*
X70032835Y-157211392D01*
X70048668Y-157223674D01*
X70064789Y-157230649D01*
X70088760Y-157241023D01*
X70099247Y-157246160D01*
X70137512Y-157267197D01*
X70156920Y-157272180D01*
X70175314Y-157278478D01*
X70193709Y-157286438D01*
X70236858Y-157293271D01*
X70248284Y-157295638D01*
X70263826Y-157299629D01*
X70290584Y-157306500D01*
X70290585Y-157306500D01*
X70310620Y-157306500D01*
X70330017Y-157308026D01*
X70349800Y-157311160D01*
X70393278Y-157307050D01*
X70404948Y-157306500D01*
X72598256Y-157306500D01*
X72618762Y-157308764D01*
X72621665Y-157308672D01*
X72621667Y-157308673D01*
X72688872Y-157306561D01*
X72692768Y-157306500D01*
X72716448Y-157306500D01*
X72720350Y-157306500D01*
X72724313Y-157305999D01*
X72735962Y-157305080D01*
X72779627Y-157303709D01*
X72798859Y-157298120D01*
X72817918Y-157294174D01*
X72825091Y-157293268D01*
X72837792Y-157291664D01*
X72878407Y-157275582D01*
X72889444Y-157271803D01*
X72931390Y-157259618D01*
X72939587Y-157254769D01*
X73002711Y-157237500D01*
X73119648Y-157237500D01*
X73243084Y-157211262D01*
X73304803Y-157198144D01*
X73477730Y-157121151D01*
X73630871Y-157009888D01*
X73757533Y-156869216D01*
X73852179Y-156705284D01*
X73910674Y-156525256D01*
X73930460Y-156337000D01*
X73910674Y-156148744D01*
X73852179Y-155968716D01*
X73852179Y-155968715D01*
X73757533Y-155804783D01*
X73630870Y-155664110D01*
X73477730Y-155552848D01*
X73304802Y-155475855D01*
X73119648Y-155436500D01*
X73119646Y-155436500D01*
X72930354Y-155436500D01*
X72930351Y-155436500D01*
X72743714Y-155476170D01*
X72674047Y-155470854D01*
X72623868Y-155432916D01*
X72623254Y-155433469D01*
X72620385Y-155430283D01*
X72618314Y-155428717D01*
X72616537Y-155426010D01*
X72487870Y-155283110D01*
X72334730Y-155171848D01*
X72161802Y-155094855D01*
X71976648Y-155055500D01*
X71976646Y-155055500D01*
X71787354Y-155055500D01*
X71787352Y-155055500D01*
X71640720Y-155086667D01*
X71571052Y-155081351D01*
X71515319Y-155039214D01*
X71497008Y-155003695D01*
X71439179Y-154825715D01*
X71344533Y-154661783D01*
X71217870Y-154521110D01*
X71064730Y-154409848D01*
X70891802Y-154332855D01*
X70706648Y-154293500D01*
X70706646Y-154293500D01*
X70647452Y-154293500D01*
X70580413Y-154273815D01*
X70559771Y-154257181D01*
X69305623Y-153003033D01*
X105995325Y-153003033D01*
X106014310Y-153389500D01*
X106014906Y-153395553D01*
X106071681Y-153778294D01*
X106072867Y-153784253D01*
X106166882Y-154159586D01*
X106168649Y-154165409D01*
X106298995Y-154529701D01*
X106301327Y-154535334D01*
X106466758Y-154885108D01*
X106469629Y-154890477D01*
X106668549Y-155222355D01*
X106671917Y-155227396D01*
X106902417Y-155538189D01*
X106906275Y-155542891D01*
X107000068Y-155646376D01*
X107000069Y-155646376D01*
X108061418Y-154585026D01*
X108069908Y-154596711D01*
X108285249Y-154826025D01*
X108417838Y-154935712D01*
X107353622Y-155999929D01*
X107353622Y-155999930D01*
X107457108Y-156093724D01*
X107461810Y-156097582D01*
X107772603Y-156328082D01*
X107777644Y-156331450D01*
X108109522Y-156530370D01*
X108114891Y-156533241D01*
X108464665Y-156698672D01*
X108470298Y-156701004D01*
X108834590Y-156831350D01*
X108840413Y-156833117D01*
X109215746Y-156927132D01*
X109221705Y-156928318D01*
X109604446Y-156985093D01*
X109610499Y-156985689D01*
X109996967Y-157004675D01*
X110003033Y-157004675D01*
X110389500Y-156985689D01*
X110395553Y-156985093D01*
X110778294Y-156928318D01*
X110784253Y-156927132D01*
X111159586Y-156833117D01*
X111165409Y-156831350D01*
X111529701Y-156701004D01*
X111535334Y-156698672D01*
X111885108Y-156533241D01*
X111890477Y-156530370D01*
X112222355Y-156331450D01*
X112227396Y-156328082D01*
X112538189Y-156097582D01*
X112542880Y-156093733D01*
X112646376Y-155999929D01*
X111582160Y-154935713D01*
X111714751Y-154826025D01*
X111930092Y-154596711D01*
X111938580Y-154585027D01*
X112999929Y-155646376D01*
X113093733Y-155542880D01*
X113097582Y-155538189D01*
X113328082Y-155227396D01*
X113331450Y-155222355D01*
X113530370Y-154890477D01*
X113533241Y-154885108D01*
X113698672Y-154535334D01*
X113701004Y-154529701D01*
X113831350Y-154165409D01*
X113833117Y-154159586D01*
X113927132Y-153784253D01*
X113928318Y-153778294D01*
X113985093Y-153395553D01*
X113985689Y-153389500D01*
X114004675Y-153003033D01*
X114004675Y-152996966D01*
X113985689Y-152610499D01*
X113985093Y-152604446D01*
X113928318Y-152221705D01*
X113927132Y-152215746D01*
X113833117Y-151840413D01*
X113831350Y-151834590D01*
X113701004Y-151470298D01*
X113698672Y-151464665D01*
X113533241Y-151114891D01*
X113530370Y-151109522D01*
X113331450Y-150777644D01*
X113328082Y-150772603D01*
X113097582Y-150461810D01*
X113093724Y-150457108D01*
X112999930Y-150353622D01*
X112999929Y-150353622D01*
X111938579Y-151414971D01*
X111930092Y-151403289D01*
X111714751Y-151173975D01*
X111582160Y-151064286D01*
X112646376Y-150000069D01*
X112646376Y-150000068D01*
X112542891Y-149906275D01*
X112538189Y-149902417D01*
X112227396Y-149671917D01*
X112222355Y-149668549D01*
X111890477Y-149469629D01*
X111885108Y-149466758D01*
X111535334Y-149301327D01*
X111529701Y-149298995D01*
X111165409Y-149168649D01*
X111159586Y-149166882D01*
X110784253Y-149072867D01*
X110778294Y-149071681D01*
X110395553Y-149014906D01*
X110389500Y-149014310D01*
X110003033Y-148995325D01*
X109996967Y-148995325D01*
X109610499Y-149014310D01*
X109604446Y-149014906D01*
X109221705Y-149071681D01*
X109215746Y-149072867D01*
X108840413Y-149166882D01*
X108834590Y-149168649D01*
X108470298Y-149298995D01*
X108464665Y-149301327D01*
X108114891Y-149466758D01*
X108109522Y-149469629D01*
X107777644Y-149668549D01*
X107772603Y-149671917D01*
X107461807Y-149902418D01*
X107457105Y-149906277D01*
X107353622Y-150000068D01*
X107353622Y-150000069D01*
X108417839Y-151064286D01*
X108285249Y-151173975D01*
X108069908Y-151403289D01*
X108061419Y-151414972D01*
X107000069Y-150353622D01*
X107000068Y-150353622D01*
X106906277Y-150457105D01*
X106902418Y-150461807D01*
X106671917Y-150772603D01*
X106668549Y-150777644D01*
X106469629Y-151109522D01*
X106466758Y-151114891D01*
X106301327Y-151464665D01*
X106298995Y-151470298D01*
X106168649Y-151834590D01*
X106166882Y-151840413D01*
X106072867Y-152215746D01*
X106071681Y-152221705D01*
X106014906Y-152604446D01*
X106014310Y-152610499D01*
X105995325Y-152996966D01*
X105995325Y-153003033D01*
X69305623Y-153003033D01*
X61173591Y-144871000D01*
X68658340Y-144871000D01*
X68678936Y-145106407D01*
X68740096Y-145334662D01*
X68740097Y-145334663D01*
X68839965Y-145548829D01*
X68975505Y-145742401D01*
X69142599Y-145909495D01*
X69336171Y-146045035D01*
X69550337Y-146144903D01*
X69778592Y-146206063D01*
X69955034Y-146221500D01*
X69957742Y-146221500D01*
X70070258Y-146221500D01*
X70072966Y-146221500D01*
X70249408Y-146206063D01*
X70477663Y-146144903D01*
X70691829Y-146045035D01*
X70885401Y-145909495D01*
X71052495Y-145742401D01*
X71188035Y-145548830D01*
X71287903Y-145334663D01*
X71349063Y-145106408D01*
X71369659Y-144871000D01*
X71349063Y-144635592D01*
X71287903Y-144407337D01*
X71188035Y-144193171D01*
X71052495Y-143999599D01*
X70885401Y-143832505D01*
X70691829Y-143696965D01*
X70477663Y-143597097D01*
X70477662Y-143597096D01*
X70249407Y-143535936D01*
X70075667Y-143520736D01*
X70075659Y-143520735D01*
X70072966Y-143520500D01*
X69955034Y-143520500D01*
X69952341Y-143520735D01*
X69952332Y-143520736D01*
X69778592Y-143535936D01*
X69550336Y-143597097D01*
X69336170Y-143696965D01*
X69142598Y-143832505D01*
X68975508Y-143999595D01*
X68975505Y-143999598D01*
X68975505Y-143999599D01*
X68881369Y-144134040D01*
X68839964Y-144193172D01*
X68740097Y-144407337D01*
X68678936Y-144635592D01*
X68658340Y-144871000D01*
X61173591Y-144871000D01*
X59538648Y-143236057D01*
X59505163Y-143174734D01*
X59510147Y-143105042D01*
X59552019Y-143049109D01*
X59617483Y-143024692D01*
X59637137Y-143024848D01*
X59639590Y-143025062D01*
X59639592Y-143025063D01*
X59875000Y-143045659D01*
X60110408Y-143025063D01*
X60338663Y-142963903D01*
X60552830Y-142864035D01*
X60746401Y-142728495D01*
X60913495Y-142561401D01*
X61049035Y-142367830D01*
X61148903Y-142153663D01*
X61210063Y-141925408D01*
X61230659Y-141690000D01*
X61210063Y-141454592D01*
X61148903Y-141226337D01*
X61049035Y-141012171D01*
X60913495Y-140818599D01*
X60791181Y-140696285D01*
X60757696Y-140634962D01*
X60762680Y-140565270D01*
X60804552Y-140509337D01*
X60835528Y-140492422D01*
X60967089Y-140443352D01*
X61082188Y-140357188D01*
X61168352Y-140242089D01*
X61218599Y-140107371D01*
X61224645Y-140051132D01*
X61225000Y-140044518D01*
X61225000Y-139400000D01*
X60308686Y-139400000D01*
X60334493Y-139359844D01*
X60375000Y-139221889D01*
X60375000Y-139078111D01*
X60334493Y-138940156D01*
X60308686Y-138900000D01*
X61225000Y-138900000D01*
X61225000Y-138255481D01*
X61224645Y-138248867D01*
X61218599Y-138192628D01*
X61168352Y-138057910D01*
X61082188Y-137942811D01*
X60967089Y-137856647D01*
X60832371Y-137806400D01*
X60776132Y-137800354D01*
X60769518Y-137800000D01*
X60125000Y-137800000D01*
X60125000Y-138714498D01*
X60017315Y-138665320D01*
X59910763Y-138650000D01*
X59839237Y-138650000D01*
X59732685Y-138665320D01*
X59625000Y-138714498D01*
X59625000Y-137800000D01*
X58980482Y-137800000D01*
X58973867Y-137800354D01*
X58917626Y-137806400D01*
X58892830Y-137815649D01*
X58823139Y-137820632D01*
X58761816Y-137787146D01*
X58728332Y-137725822D01*
X58725499Y-137699466D01*
X58725499Y-136249757D01*
X58745184Y-136182718D01*
X58797988Y-136136963D01*
X58867146Y-136127019D01*
X58930702Y-136156044D01*
X58937180Y-136162076D01*
X59003599Y-136228495D01*
X59197170Y-136364035D01*
X59411337Y-136463903D01*
X59639592Y-136525063D01*
X59874999Y-136545659D01*
X59874999Y-136545658D01*
X59875000Y-136545659D01*
X60110408Y-136525063D01*
X60338663Y-136463903D01*
X60552830Y-136364035D01*
X60746401Y-136228495D01*
X60913495Y-136061401D01*
X61048653Y-135868374D01*
X61103229Y-135824752D01*
X61150227Y-135815500D01*
X62002256Y-135815500D01*
X62022762Y-135817764D01*
X62025665Y-135817672D01*
X62025667Y-135817673D01*
X62092872Y-135815561D01*
X62096768Y-135815500D01*
X62120448Y-135815500D01*
X62124350Y-135815500D01*
X62128313Y-135814999D01*
X62139962Y-135814080D01*
X62183627Y-135812709D01*
X62202859Y-135807120D01*
X62221918Y-135803174D01*
X62228196Y-135802381D01*
X62241792Y-135800664D01*
X62282407Y-135784582D01*
X62293444Y-135780803D01*
X62335390Y-135768618D01*
X62352629Y-135758422D01*
X62370102Y-135749862D01*
X62388732Y-135742486D01*
X62424064Y-135716814D01*
X62433830Y-135710400D01*
X62471418Y-135688171D01*
X62471417Y-135688171D01*
X62471420Y-135688170D01*
X62485585Y-135674004D01*
X62500373Y-135661373D01*
X62516587Y-135649594D01*
X62544438Y-135615926D01*
X62552279Y-135607309D01*
X64883786Y-133275802D01*
X64899886Y-133262905D01*
X64901874Y-133260787D01*
X64901877Y-133260786D01*
X64947964Y-133211707D01*
X64950549Y-133209039D01*
X64970120Y-133189470D01*
X64972565Y-133186316D01*
X64980154Y-133177429D01*
X65010062Y-133145582D01*
X65019713Y-133128026D01*
X65030393Y-133111767D01*
X65042674Y-133095936D01*
X65060018Y-133055851D01*
X65065160Y-133045356D01*
X65086197Y-133007092D01*
X65091178Y-132987688D01*
X65097480Y-132969283D01*
X65105438Y-132950895D01*
X65112270Y-132907748D01*
X65114639Y-132896316D01*
X65125500Y-132854020D01*
X65125500Y-132833983D01*
X65127027Y-132814584D01*
X65130160Y-132794803D01*
X65126050Y-132751335D01*
X65125499Y-132739662D01*
X65125499Y-120101335D01*
X65125499Y-107310448D01*
X65145184Y-107243413D01*
X65161813Y-107222776D01*
X68245171Y-104139419D01*
X68306495Y-104105934D01*
X68332853Y-104103100D01*
X68680122Y-104103100D01*
X68747161Y-104122785D01*
X68792916Y-104175589D01*
X68802860Y-104244747D01*
X68800328Y-104257540D01*
X68753892Y-104440911D01*
X68735224Y-104666200D01*
X68753892Y-104891488D01*
X68809390Y-105110643D01*
X68900196Y-105317662D01*
X69023847Y-105506924D01*
X69176950Y-105673237D01*
X69176954Y-105673240D01*
X69355351Y-105812093D01*
X69355353Y-105812094D01*
X69383166Y-105827146D01*
X69432756Y-105876365D01*
X69447864Y-105944582D01*
X69423693Y-106010137D01*
X69383166Y-106045254D01*
X69355353Y-106060305D01*
X69176950Y-106199162D01*
X69023847Y-106365475D01*
X68900196Y-106554737D01*
X68809390Y-106761756D01*
X68809389Y-106761759D01*
X68777631Y-106887170D01*
X68753892Y-106980911D01*
X68735224Y-107206200D01*
X68753892Y-107431488D01*
X68753892Y-107431491D01*
X68753893Y-107431493D01*
X68796666Y-107600400D01*
X68809390Y-107650643D01*
X68900196Y-107857662D01*
X69023847Y-108046924D01*
X69176950Y-108213237D01*
X69176954Y-108213240D01*
X69355351Y-108352093D01*
X69383167Y-108367146D01*
X69432755Y-108416362D01*
X69447865Y-108484578D01*
X69423695Y-108550134D01*
X69383168Y-108585252D01*
X69355354Y-108600304D01*
X69176950Y-108739162D01*
X69023847Y-108905475D01*
X68900196Y-109094737D01*
X68809390Y-109301756D01*
X68753892Y-109520911D01*
X68735224Y-109746200D01*
X68753892Y-109971488D01*
X68753892Y-109971491D01*
X68753893Y-109971493D01*
X68805391Y-110174854D01*
X68809390Y-110190643D01*
X68900196Y-110397662D01*
X69023847Y-110586924D01*
X69176950Y-110753237D01*
X69176954Y-110753240D01*
X69355351Y-110892093D01*
X69355353Y-110892094D01*
X69383166Y-110907146D01*
X69432756Y-110956365D01*
X69447864Y-111024582D01*
X69423693Y-111090137D01*
X69383166Y-111125254D01*
X69355353Y-111140305D01*
X69176950Y-111279162D01*
X69023847Y-111445475D01*
X68900196Y-111634737D01*
X68809390Y-111841756D01*
X68753892Y-112060911D01*
X68735224Y-112286199D01*
X68753892Y-112511488D01*
X68753892Y-112511491D01*
X68753893Y-112511493D01*
X68792743Y-112664909D01*
X68809390Y-112730643D01*
X68900196Y-112937662D01*
X69023847Y-113126924D01*
X69176950Y-113293237D01*
X69176954Y-113293240D01*
X69355351Y-113432093D01*
X69355353Y-113432094D01*
X69383166Y-113447146D01*
X69432756Y-113496365D01*
X69447864Y-113564582D01*
X69423693Y-113630137D01*
X69383166Y-113665254D01*
X69355353Y-113680305D01*
X69176950Y-113819162D01*
X69023847Y-113985475D01*
X68900196Y-114174737D01*
X68809390Y-114381756D01*
X68753892Y-114600911D01*
X68735224Y-114826199D01*
X68753892Y-115051488D01*
X68753892Y-115051491D01*
X68753893Y-115051493D01*
X68801385Y-115239035D01*
X68809390Y-115270643D01*
X68900196Y-115477662D01*
X69023847Y-115666924D01*
X69161244Y-115816175D01*
X69192167Y-115878829D01*
X69184307Y-115948255D01*
X69140160Y-116002411D01*
X69113349Y-116016340D01*
X68998311Y-116059247D01*
X68883211Y-116145411D01*
X68797047Y-116260510D01*
X68746800Y-116395228D01*
X68740754Y-116451467D01*
X68740400Y-116458081D01*
X68740400Y-117116200D01*
X69660804Y-117116200D01*
X69637155Y-117152999D01*
X69596000Y-117293161D01*
X69596000Y-117439239D01*
X69637155Y-117579401D01*
X69660804Y-117616200D01*
X68740400Y-117616200D01*
X68740400Y-118274318D01*
X68740754Y-118280932D01*
X68746800Y-118337171D01*
X68797047Y-118471889D01*
X68883211Y-118586988D01*
X68998311Y-118673152D01*
X69113348Y-118716059D01*
X69169282Y-118757930D01*
X69193699Y-118823395D01*
X69178847Y-118891668D01*
X69161245Y-118916224D01*
X69023845Y-119065479D01*
X68900196Y-119254737D01*
X68809390Y-119461756D01*
X68753892Y-119680911D01*
X68735224Y-119906200D01*
X68753892Y-120131488D01*
X68753892Y-120131491D01*
X68753893Y-120131493D01*
X68791831Y-120281308D01*
X68809390Y-120350643D01*
X68900196Y-120557662D01*
X69023847Y-120746924D01*
X69176950Y-120913237D01*
X69176954Y-120913240D01*
X69355351Y-121052093D01*
X69383167Y-121067146D01*
X69432755Y-121116362D01*
X69447865Y-121184578D01*
X69423695Y-121250134D01*
X69383168Y-121285252D01*
X69355354Y-121300304D01*
X69176950Y-121439162D01*
X69023847Y-121605475D01*
X68900196Y-121794737D01*
X68809390Y-122001756D01*
X68809389Y-122001759D01*
X68753893Y-122220907D01*
X68753892Y-122220911D01*
X68735224Y-122446199D01*
X68753892Y-122671488D01*
X68753892Y-122671491D01*
X68753893Y-122671493D01*
X68778100Y-122767085D01*
X68809390Y-122890643D01*
X68900196Y-123097662D01*
X69023847Y-123286924D01*
X69176950Y-123453237D01*
X69176954Y-123453240D01*
X69355351Y-123592093D01*
X69355353Y-123592094D01*
X69383166Y-123607146D01*
X69432756Y-123656365D01*
X69447864Y-123724582D01*
X69423693Y-123790137D01*
X69383166Y-123825254D01*
X69355353Y-123840305D01*
X69176950Y-123979162D01*
X69023847Y-124145475D01*
X68900196Y-124334737D01*
X68809390Y-124541756D01*
X68753892Y-124760911D01*
X68735224Y-124986200D01*
X68753892Y-125211488D01*
X68753892Y-125211491D01*
X68753893Y-125211493D01*
X68765032Y-125255481D01*
X68809390Y-125430643D01*
X68900196Y-125637662D01*
X69023847Y-125826924D01*
X69176950Y-125993237D01*
X69176954Y-125993240D01*
X69355351Y-126132093D01*
X69554169Y-126239688D01*
X69767986Y-126313091D01*
X69990967Y-126350300D01*
X69990968Y-126350300D01*
X70217032Y-126350300D01*
X70217033Y-126350300D01*
X70440014Y-126313091D01*
X70653831Y-126239688D01*
X70852649Y-126132093D01*
X71031046Y-125993240D01*
X71059956Y-125961836D01*
X71184152Y-125826924D01*
X71184153Y-125826921D01*
X71184156Y-125826919D01*
X71307802Y-125637665D01*
X71398611Y-125430641D01*
X71454107Y-125211493D01*
X71472775Y-124986200D01*
X71454107Y-124760907D01*
X71398611Y-124541759D01*
X71307802Y-124334735D01*
X71184156Y-124145481D01*
X71184155Y-124145480D01*
X71184152Y-124145475D01*
X71031049Y-123979162D01*
X70977367Y-123937379D01*
X70852649Y-123840307D01*
X70824832Y-123825253D01*
X70775243Y-123776036D01*
X70760135Y-123707820D01*
X70784305Y-123642264D01*
X70824831Y-123607146D01*
X70852649Y-123592093D01*
X71031046Y-123453240D01*
X71172777Y-123299280D01*
X71184152Y-123286924D01*
X71184153Y-123286921D01*
X71184156Y-123286919D01*
X71307802Y-123097665D01*
X71398611Y-122890641D01*
X71454107Y-122671493D01*
X71472775Y-122446200D01*
X71454107Y-122220907D01*
X71398611Y-122001759D01*
X71307802Y-121794735D01*
X71184156Y-121605481D01*
X71184155Y-121605480D01*
X71184152Y-121605475D01*
X71031049Y-121439162D01*
X70852648Y-121300306D01*
X70824832Y-121285253D01*
X70775242Y-121236033D01*
X70760135Y-121167816D01*
X70784306Y-121102261D01*
X70824833Y-121067145D01*
X70852649Y-121052093D01*
X71031046Y-120913240D01*
X71090631Y-120848514D01*
X71184152Y-120746924D01*
X71184153Y-120746921D01*
X71184156Y-120746919D01*
X71307802Y-120557665D01*
X71398611Y-120350641D01*
X71454107Y-120131493D01*
X71472775Y-119906200D01*
X71454107Y-119680907D01*
X71398611Y-119461759D01*
X71307802Y-119254735D01*
X71184156Y-119065481D01*
X71184155Y-119065480D01*
X71184152Y-119065475D01*
X71046755Y-118916224D01*
X71015832Y-118853570D01*
X71023692Y-118784144D01*
X71067839Y-118729988D01*
X71094651Y-118716059D01*
X71209688Y-118673152D01*
X71324788Y-118586988D01*
X71410952Y-118471889D01*
X71461199Y-118337171D01*
X71467245Y-118280932D01*
X71467600Y-118274318D01*
X71467600Y-117616200D01*
X70547196Y-117616200D01*
X70570845Y-117579401D01*
X70612000Y-117439239D01*
X70612000Y-117293161D01*
X70570845Y-117152999D01*
X70547196Y-117116200D01*
X71467600Y-117116200D01*
X71467600Y-116458081D01*
X71467245Y-116451467D01*
X71461199Y-116395228D01*
X71410952Y-116260510D01*
X71324788Y-116145411D01*
X71209688Y-116059247D01*
X71094650Y-116016340D01*
X71038717Y-115974468D01*
X71014300Y-115909004D01*
X71029152Y-115840731D01*
X71046749Y-115816181D01*
X71184156Y-115666919D01*
X71307802Y-115477665D01*
X71398611Y-115270641D01*
X71454107Y-115051493D01*
X71472775Y-114826200D01*
X71454107Y-114600907D01*
X71398611Y-114381759D01*
X71307802Y-114174735D01*
X71184156Y-113985481D01*
X71184155Y-113985480D01*
X71184152Y-113985475D01*
X71031049Y-113819162D01*
X70915371Y-113729126D01*
X70852649Y-113680307D01*
X70824832Y-113665253D01*
X70775243Y-113616036D01*
X70760135Y-113547820D01*
X70784305Y-113482264D01*
X70824831Y-113447146D01*
X70852649Y-113432093D01*
X71031046Y-113293240D01*
X71053996Y-113268310D01*
X71184152Y-113126924D01*
X71184153Y-113126921D01*
X71184156Y-113126919D01*
X71307802Y-112937665D01*
X71398611Y-112730641D01*
X71454107Y-112511493D01*
X71472775Y-112286200D01*
X71454107Y-112060907D01*
X71398611Y-111841759D01*
X71307802Y-111634735D01*
X71184156Y-111445481D01*
X71184155Y-111445480D01*
X71184152Y-111445475D01*
X71031049Y-111279162D01*
X70913409Y-111187599D01*
X70852649Y-111140307D01*
X70824832Y-111125253D01*
X70775243Y-111076036D01*
X70760135Y-111007820D01*
X70784305Y-110942264D01*
X70824831Y-110907146D01*
X70852649Y-110892093D01*
X71031046Y-110753240D01*
X71150168Y-110623840D01*
X71184152Y-110586924D01*
X71184153Y-110586921D01*
X71184156Y-110586919D01*
X71307802Y-110397665D01*
X71398611Y-110190641D01*
X71454107Y-109971493D01*
X71472617Y-109748103D01*
X71497770Y-109682922D01*
X71554172Y-109641683D01*
X71623915Y-109637485D01*
X71683874Y-109670665D01*
X77570181Y-115556971D01*
X77603666Y-115618294D01*
X77606500Y-115644652D01*
X77606500Y-150304312D01*
X77586815Y-150371351D01*
X77574650Y-150387284D01*
X77499466Y-150470783D01*
X77404820Y-150634715D01*
X77346326Y-150814742D01*
X77326540Y-151003000D01*
X77346326Y-151191257D01*
X77404820Y-151371284D01*
X77499466Y-151535216D01*
X77626129Y-151675889D01*
X77779269Y-151787151D01*
X77952197Y-151864144D01*
X78137352Y-151903500D01*
X78137354Y-151903500D01*
X78326648Y-151903500D01*
X78450083Y-151877262D01*
X78511803Y-151864144D01*
X78684730Y-151787151D01*
X78837871Y-151675888D01*
X78964533Y-151535216D01*
X79059179Y-151371284D01*
X79117674Y-151191256D01*
X79137460Y-151003000D01*
X79135370Y-150983118D01*
X79147937Y-150914390D01*
X79195668Y-150863365D01*
X79232913Y-150848864D01*
X79236303Y-150848144D01*
X79409230Y-150771151D01*
X79562371Y-150659888D01*
X79689033Y-150519216D01*
X79783679Y-150355284D01*
X79842174Y-150175256D01*
X79861960Y-149987000D01*
X79842174Y-149798744D01*
X79783679Y-149618716D01*
X79783679Y-149618715D01*
X79689033Y-149454783D01*
X79613850Y-149371284D01*
X79583620Y-149308293D01*
X79582000Y-149288312D01*
X79582000Y-144871000D01*
X89158340Y-144871000D01*
X89178936Y-145106407D01*
X89240097Y-145334662D01*
X89240097Y-145334663D01*
X89339965Y-145548829D01*
X89475505Y-145742401D01*
X89642599Y-145909495D01*
X89836171Y-146045035D01*
X90050337Y-146144903D01*
X90278592Y-146206063D01*
X90455034Y-146221500D01*
X90457742Y-146221500D01*
X90570258Y-146221500D01*
X90572966Y-146221500D01*
X90749408Y-146206063D01*
X90977663Y-146144903D01*
X91191829Y-146045035D01*
X91385401Y-145909495D01*
X91552495Y-145742401D01*
X91688035Y-145548830D01*
X91787903Y-145334663D01*
X91849063Y-145106408D01*
X91862877Y-144948518D01*
X103229000Y-144948518D01*
X103229354Y-144955132D01*
X103235400Y-145011371D01*
X103285647Y-145146089D01*
X103371811Y-145261188D01*
X103486910Y-145347352D01*
X103621628Y-145397599D01*
X103677867Y-145403645D01*
X103684482Y-145404000D01*
X104779000Y-145404000D01*
X104779000Y-144208310D01*
X104787817Y-144213158D01*
X104946886Y-144254000D01*
X105069894Y-144254000D01*
X105191933Y-144238583D01*
X105279000Y-144204110D01*
X105279000Y-145404000D01*
X106373518Y-145404000D01*
X106380132Y-145403645D01*
X106436371Y-145397599D01*
X106571089Y-145347352D01*
X106686188Y-145261188D01*
X106772352Y-145146089D01*
X106822599Y-145011371D01*
X106828645Y-144955132D01*
X106829000Y-144948518D01*
X106829000Y-143854000D01*
X105629728Y-143854000D01*
X105652100Y-143806457D01*
X105682873Y-143645138D01*
X105672561Y-143481234D01*
X105631220Y-143354000D01*
X106829000Y-143354000D01*
X106829000Y-142259481D01*
X106828645Y-142252867D01*
X106822599Y-142196628D01*
X106772352Y-142061910D01*
X106686188Y-141946811D01*
X106571089Y-141860647D01*
X106436371Y-141810400D01*
X106380132Y-141804354D01*
X106373518Y-141804000D01*
X105279000Y-141804000D01*
X105279000Y-142999689D01*
X105270183Y-142994842D01*
X105111114Y-142954000D01*
X104988106Y-142954000D01*
X104866067Y-142969417D01*
X104779000Y-143003889D01*
X104779000Y-141804000D01*
X103684482Y-141804000D01*
X103677867Y-141804354D01*
X103621628Y-141810400D01*
X103486910Y-141860647D01*
X103371811Y-141946811D01*
X103285647Y-142061910D01*
X103235400Y-142196628D01*
X103229354Y-142252867D01*
X103229000Y-142259481D01*
X103229000Y-143354000D01*
X104428272Y-143354000D01*
X104405900Y-143401543D01*
X104375127Y-143562862D01*
X104385439Y-143726766D01*
X104426780Y-143854000D01*
X103229000Y-143854000D01*
X103229000Y-144948518D01*
X91862877Y-144948518D01*
X91869659Y-144871000D01*
X91849063Y-144635592D01*
X91787903Y-144407337D01*
X91688035Y-144193171D01*
X91552495Y-143999599D01*
X91385401Y-143832505D01*
X91191829Y-143696965D01*
X90977663Y-143597097D01*
X90977662Y-143597096D01*
X90749407Y-143535936D01*
X90575667Y-143520736D01*
X90575659Y-143520735D01*
X90572966Y-143520500D01*
X90455034Y-143520500D01*
X90452341Y-143520735D01*
X90452332Y-143520736D01*
X90278592Y-143535936D01*
X90050336Y-143597097D01*
X89836170Y-143696965D01*
X89642598Y-143832505D01*
X89475508Y-143999595D01*
X89475505Y-143999598D01*
X89475505Y-143999599D01*
X89381369Y-144134040D01*
X89339964Y-144193172D01*
X89240097Y-144407337D01*
X89178936Y-144635592D01*
X89158340Y-144871000D01*
X79582000Y-144871000D01*
X79582000Y-138603999D01*
X103223450Y-138603999D01*
X103243616Y-138873100D01*
X103243617Y-138873103D01*
X103303666Y-139136195D01*
X103402257Y-139387398D01*
X103537185Y-139621102D01*
X103705439Y-139832085D01*
X103903259Y-140015635D01*
X104126226Y-140167651D01*
X104369359Y-140284738D01*
X104627228Y-140364280D01*
X104894071Y-140404500D01*
X105163929Y-140404500D01*
X105430772Y-140364280D01*
X105688641Y-140284738D01*
X105931775Y-140167651D01*
X106154741Y-140015635D01*
X106352561Y-139832085D01*
X106520815Y-139621102D01*
X106655743Y-139387398D01*
X106754334Y-139136195D01*
X106814383Y-138873103D01*
X106834549Y-138604000D01*
X106814383Y-138334897D01*
X106754334Y-138071805D01*
X106655743Y-137820602D01*
X106520815Y-137586898D01*
X106352561Y-137375915D01*
X106352560Y-137375914D01*
X106154743Y-137192366D01*
X106097205Y-137153137D01*
X105931775Y-137040349D01*
X105688641Y-136923262D01*
X105609098Y-136898726D01*
X105430771Y-136843719D01*
X105163929Y-136803500D01*
X104894071Y-136803500D01*
X104627228Y-136843719D01*
X104369359Y-136923262D01*
X104126228Y-137040347D01*
X103903257Y-137192366D01*
X103705439Y-137375915D01*
X103537184Y-137586899D01*
X103402257Y-137820601D01*
X103303666Y-138071804D01*
X103243616Y-138334899D01*
X103223450Y-138603999D01*
X79582000Y-138603999D01*
X79582000Y-133604000D01*
X103223450Y-133604000D01*
X103243616Y-133873100D01*
X103274800Y-134009725D01*
X103303666Y-134136195D01*
X103402257Y-134387398D01*
X103537185Y-134621102D01*
X103705439Y-134832085D01*
X103903259Y-135015635D01*
X104126226Y-135167651D01*
X104369359Y-135284738D01*
X104627228Y-135364280D01*
X104894071Y-135404500D01*
X105163929Y-135404500D01*
X105430772Y-135364280D01*
X105688641Y-135284738D01*
X105931775Y-135167651D01*
X106154741Y-135015635D01*
X106352561Y-134832085D01*
X106520815Y-134621102D01*
X106655743Y-134387398D01*
X106754334Y-134136195D01*
X106814383Y-133873103D01*
X106834549Y-133604000D01*
X106814383Y-133334897D01*
X106754334Y-133071805D01*
X106655743Y-132820602D01*
X106520815Y-132586898D01*
X106352561Y-132375915D01*
X106193747Y-132228557D01*
X106154743Y-132192366D01*
X106058311Y-132126620D01*
X105931775Y-132040349D01*
X105688641Y-131923262D01*
X105609098Y-131898726D01*
X105430771Y-131843719D01*
X105163929Y-131803500D01*
X104894071Y-131803500D01*
X104627228Y-131843719D01*
X104369359Y-131923262D01*
X104126228Y-132040347D01*
X103903257Y-132192366D01*
X103705439Y-132375915D01*
X103537184Y-132586899D01*
X103402257Y-132820601D01*
X103303666Y-133071804D01*
X103243616Y-133334899D01*
X103223450Y-133604000D01*
X79582000Y-133604000D01*
X79582000Y-127883518D01*
X103407000Y-127883518D01*
X103407354Y-127890132D01*
X103413400Y-127946371D01*
X103463647Y-128081089D01*
X103549811Y-128196188D01*
X103664910Y-128282352D01*
X103799628Y-128332599D01*
X103855867Y-128338645D01*
X103862482Y-128339000D01*
X104957000Y-128339000D01*
X104957000Y-127143310D01*
X104965817Y-127148158D01*
X105124886Y-127189000D01*
X105247894Y-127189000D01*
X105369933Y-127173583D01*
X105457000Y-127139110D01*
X105457000Y-128339000D01*
X106551518Y-128339000D01*
X106558132Y-128338645D01*
X106614371Y-128332599D01*
X106749089Y-128282352D01*
X106864188Y-128196188D01*
X106950352Y-128081089D01*
X107000599Y-127946371D01*
X107006645Y-127890132D01*
X107007000Y-127883518D01*
X107007000Y-126789000D01*
X105807728Y-126789000D01*
X105830100Y-126741457D01*
X105860873Y-126580138D01*
X105850561Y-126416234D01*
X105809220Y-126289000D01*
X107007000Y-126289000D01*
X107007000Y-125194481D01*
X107006645Y-125187867D01*
X107000599Y-125131628D01*
X106950352Y-124996910D01*
X106864188Y-124881811D01*
X106749089Y-124795647D01*
X106614371Y-124745400D01*
X106558132Y-124739354D01*
X106551518Y-124739000D01*
X105457000Y-124739000D01*
X105457000Y-125934689D01*
X105448183Y-125929842D01*
X105289114Y-125889000D01*
X105166106Y-125889000D01*
X105044067Y-125904417D01*
X104957000Y-125938889D01*
X104957000Y-124739000D01*
X103862482Y-124739000D01*
X103855867Y-124739354D01*
X103799628Y-124745400D01*
X103664910Y-124795647D01*
X103549811Y-124881811D01*
X103463647Y-124996910D01*
X103413400Y-125131628D01*
X103407354Y-125187867D01*
X103407000Y-125194481D01*
X103407000Y-126289000D01*
X104606272Y-126289000D01*
X104583900Y-126336543D01*
X104553127Y-126497862D01*
X104563439Y-126661766D01*
X104604780Y-126789000D01*
X103407000Y-126789000D01*
X103407000Y-127883518D01*
X79582000Y-127883518D01*
X79582000Y-113601443D01*
X79584264Y-113580939D01*
X79582061Y-113510812D01*
X79582000Y-113506918D01*
X79582000Y-113483241D01*
X79582000Y-113479350D01*
X79581498Y-113475383D01*
X79580581Y-113463727D01*
X79580060Y-113447145D01*
X79579210Y-113420073D01*
X79573618Y-113400826D01*
X79569674Y-113381785D01*
X79567164Y-113361908D01*
X79551079Y-113321283D01*
X79547308Y-113310268D01*
X79535118Y-113268310D01*
X79524914Y-113251055D01*
X79516361Y-113233595D01*
X79508986Y-113214969D01*
X79508986Y-113214968D01*
X79483308Y-113179625D01*
X79476901Y-113169871D01*
X79454669Y-113132279D01*
X79440506Y-113118116D01*
X79427867Y-113103317D01*
X79416095Y-113087113D01*
X79382441Y-113059273D01*
X79373799Y-113051409D01*
X71455387Y-105132996D01*
X71421902Y-105071673D01*
X71422862Y-105014875D01*
X71425298Y-105005256D01*
X71454107Y-104891493D01*
X71472775Y-104666200D01*
X71454107Y-104440907D01*
X71407672Y-104257539D01*
X71410297Y-104187720D01*
X71450253Y-104130402D01*
X71514855Y-104103786D01*
X71527878Y-104103100D01*
X88924947Y-104103100D01*
X88991986Y-104122785D01*
X89012628Y-104139419D01*
X89072612Y-104199403D01*
X89106097Y-104260726D01*
X89105137Y-104317523D01*
X89073892Y-104440910D01*
X89055224Y-104666200D01*
X89073892Y-104891488D01*
X89129390Y-105110643D01*
X89220196Y-105317662D01*
X89343847Y-105506924D01*
X89496950Y-105673237D01*
X89496954Y-105673240D01*
X89675351Y-105812093D01*
X89675353Y-105812094D01*
X89703166Y-105827146D01*
X89752756Y-105876365D01*
X89767864Y-105944582D01*
X89743693Y-106010137D01*
X89703166Y-106045254D01*
X89675353Y-106060305D01*
X89496950Y-106199162D01*
X89343847Y-106365475D01*
X89220196Y-106554737D01*
X89129390Y-106761756D01*
X89129389Y-106761759D01*
X89097631Y-106887170D01*
X89073892Y-106980911D01*
X89055224Y-107206199D01*
X89073892Y-107431488D01*
X89073892Y-107431491D01*
X89073893Y-107431493D01*
X89116666Y-107600400D01*
X89129390Y-107650643D01*
X89220196Y-107857662D01*
X89343847Y-108046924D01*
X89496950Y-108213237D01*
X89496954Y-108213240D01*
X89675351Y-108352093D01*
X89703167Y-108367146D01*
X89752755Y-108416362D01*
X89767865Y-108484578D01*
X89743695Y-108550134D01*
X89703168Y-108585252D01*
X89675354Y-108600304D01*
X89496950Y-108739162D01*
X89343847Y-108905475D01*
X89220196Y-109094737D01*
X89129390Y-109301756D01*
X89073892Y-109520911D01*
X89055224Y-109746200D01*
X89073892Y-109971488D01*
X89073892Y-109971491D01*
X89073893Y-109971493D01*
X89125391Y-110174854D01*
X89129390Y-110190643D01*
X89220196Y-110397662D01*
X89343847Y-110586924D01*
X89496950Y-110753237D01*
X89496954Y-110753240D01*
X89675351Y-110892093D01*
X89675353Y-110892094D01*
X89703166Y-110907146D01*
X89752756Y-110956365D01*
X89767864Y-111024582D01*
X89743693Y-111090137D01*
X89703166Y-111125254D01*
X89675353Y-111140305D01*
X89496950Y-111279162D01*
X89343847Y-111445475D01*
X89220196Y-111634737D01*
X89129390Y-111841756D01*
X89073892Y-112060911D01*
X89055224Y-112286199D01*
X89073892Y-112511488D01*
X89073892Y-112511491D01*
X89073893Y-112511493D01*
X89112743Y-112664909D01*
X89129390Y-112730643D01*
X89220196Y-112937662D01*
X89343847Y-113126924D01*
X89496950Y-113293237D01*
X89496954Y-113293240D01*
X89675351Y-113432093D01*
X89675353Y-113432094D01*
X89703166Y-113447146D01*
X89752756Y-113496365D01*
X89767864Y-113564582D01*
X89743693Y-113630137D01*
X89703166Y-113665254D01*
X89675353Y-113680305D01*
X89496950Y-113819162D01*
X89343847Y-113985475D01*
X89220196Y-114174737D01*
X89129390Y-114381756D01*
X89073892Y-114600911D01*
X89055224Y-114826200D01*
X89073892Y-115051488D01*
X89073892Y-115051491D01*
X89073893Y-115051493D01*
X89121385Y-115239035D01*
X89129390Y-115270643D01*
X89220196Y-115477662D01*
X89343847Y-115666924D01*
X89496950Y-115833237D01*
X89496954Y-115833240D01*
X89675351Y-115972093D01*
X89675353Y-115972094D01*
X89703166Y-115987146D01*
X89752756Y-116036365D01*
X89767864Y-116104582D01*
X89743693Y-116170137D01*
X89703166Y-116205254D01*
X89675353Y-116220305D01*
X89496950Y-116359162D01*
X89343847Y-116525475D01*
X89220196Y-116714737D01*
X89150441Y-116873765D01*
X89129389Y-116921759D01*
X89126176Y-116934448D01*
X89073892Y-117140911D01*
X89055224Y-117366199D01*
X89073892Y-117591488D01*
X89073892Y-117591491D01*
X89073893Y-117591493D01*
X89129389Y-117810641D01*
X89143202Y-117842132D01*
X89220196Y-118017662D01*
X89343847Y-118206924D01*
X89496950Y-118373237D01*
X89496954Y-118373240D01*
X89675351Y-118512093D01*
X89675353Y-118512094D01*
X89703166Y-118527146D01*
X89752756Y-118576365D01*
X89767864Y-118644582D01*
X89743693Y-118710137D01*
X89703166Y-118745254D01*
X89675353Y-118760305D01*
X89496950Y-118899162D01*
X89343847Y-119065475D01*
X89220196Y-119254737D01*
X89129390Y-119461756D01*
X89073892Y-119680911D01*
X89055224Y-119906200D01*
X89073892Y-120131488D01*
X89073892Y-120131491D01*
X89073893Y-120131493D01*
X89111831Y-120281308D01*
X89129390Y-120350643D01*
X89220196Y-120557662D01*
X89343847Y-120746924D01*
X89496950Y-120913237D01*
X89496954Y-120913240D01*
X89675351Y-121052093D01*
X89703167Y-121067146D01*
X89752755Y-121116362D01*
X89767865Y-121184578D01*
X89743695Y-121250134D01*
X89703168Y-121285252D01*
X89675354Y-121300304D01*
X89496950Y-121439162D01*
X89343847Y-121605475D01*
X89220196Y-121794737D01*
X89129390Y-122001756D01*
X89129389Y-122001759D01*
X89073893Y-122220907D01*
X89073892Y-122220911D01*
X89055224Y-122446199D01*
X89073892Y-122671488D01*
X89073892Y-122671491D01*
X89073893Y-122671493D01*
X89098100Y-122767085D01*
X89129390Y-122890643D01*
X89220196Y-123097662D01*
X89343847Y-123286924D01*
X89496950Y-123453237D01*
X89496954Y-123453240D01*
X89675351Y-123592093D01*
X89675353Y-123592094D01*
X89703166Y-123607146D01*
X89752756Y-123656365D01*
X89767864Y-123724582D01*
X89743693Y-123790137D01*
X89703166Y-123825254D01*
X89675353Y-123840305D01*
X89496950Y-123979162D01*
X89343847Y-124145475D01*
X89220196Y-124334737D01*
X89129390Y-124541756D01*
X89073892Y-124760911D01*
X89055224Y-124986200D01*
X89073892Y-125211488D01*
X89073892Y-125211491D01*
X89073893Y-125211493D01*
X89085032Y-125255481D01*
X89129390Y-125430643D01*
X89220196Y-125637662D01*
X89343847Y-125826924D01*
X89496950Y-125993237D01*
X89496954Y-125993240D01*
X89675351Y-126132093D01*
X89874169Y-126239688D01*
X90087986Y-126313091D01*
X90310967Y-126350300D01*
X90310968Y-126350300D01*
X90537032Y-126350300D01*
X90537033Y-126350300D01*
X90760014Y-126313091D01*
X90973831Y-126239688D01*
X91172649Y-126132093D01*
X91351046Y-125993240D01*
X91379956Y-125961836D01*
X91504152Y-125826924D01*
X91504153Y-125826921D01*
X91504156Y-125826919D01*
X91627802Y-125637665D01*
X91718611Y-125430641D01*
X91774107Y-125211493D01*
X91792775Y-124986200D01*
X91774107Y-124760907D01*
X91718611Y-124541759D01*
X91627802Y-124334735D01*
X91504156Y-124145481D01*
X91504155Y-124145480D01*
X91504152Y-124145475D01*
X91351049Y-123979162D01*
X91297367Y-123937379D01*
X91172649Y-123840307D01*
X91144832Y-123825253D01*
X91095243Y-123776036D01*
X91080135Y-123707820D01*
X91104305Y-123642264D01*
X91144831Y-123607146D01*
X91172649Y-123592093D01*
X91351046Y-123453240D01*
X91492777Y-123299280D01*
X91504152Y-123286924D01*
X91504153Y-123286921D01*
X91504156Y-123286919D01*
X91627802Y-123097665D01*
X91718611Y-122890641D01*
X91774107Y-122671493D01*
X91792775Y-122446200D01*
X91774107Y-122220907D01*
X91718611Y-122001759D01*
X91627802Y-121794735D01*
X91504156Y-121605481D01*
X91504155Y-121605480D01*
X91504152Y-121605475D01*
X91442956Y-121538999D01*
X103401450Y-121538999D01*
X103421616Y-121808100D01*
X103428647Y-121838903D01*
X103481666Y-122071195D01*
X103580257Y-122322398D01*
X103715185Y-122556102D01*
X103883439Y-122767085D01*
X104081259Y-122950635D01*
X104304226Y-123102651D01*
X104547359Y-123219738D01*
X104805228Y-123299280D01*
X105072071Y-123339500D01*
X105341929Y-123339500D01*
X105608772Y-123299280D01*
X105866641Y-123219738D01*
X106109775Y-123102651D01*
X106332741Y-122950635D01*
X106530561Y-122767085D01*
X106698815Y-122556102D01*
X106833743Y-122322398D01*
X106932334Y-122071195D01*
X106992383Y-121808103D01*
X107012549Y-121539000D01*
X107011521Y-121525288D01*
X106992383Y-121269899D01*
X106986204Y-121242827D01*
X106932334Y-121006805D01*
X106833743Y-120755602D01*
X106698815Y-120521898D01*
X106530561Y-120310915D01*
X106498652Y-120281308D01*
X106332743Y-120127366D01*
X106275205Y-120088137D01*
X106109775Y-119975349D01*
X105866641Y-119858262D01*
X105787097Y-119833726D01*
X105608771Y-119778719D01*
X105341929Y-119738500D01*
X105072071Y-119738500D01*
X104805228Y-119778719D01*
X104547359Y-119858262D01*
X104304228Y-119975347D01*
X104081257Y-120127366D01*
X103883439Y-120310915D01*
X103715184Y-120521899D01*
X103580257Y-120755601D01*
X103481666Y-121006804D01*
X103421616Y-121269899D01*
X103401450Y-121538999D01*
X91442956Y-121538999D01*
X91351049Y-121439162D01*
X91172648Y-121300306D01*
X91144832Y-121285253D01*
X91095242Y-121236033D01*
X91080135Y-121167816D01*
X91104306Y-121102261D01*
X91144833Y-121067145D01*
X91172649Y-121052093D01*
X91351046Y-120913240D01*
X91410631Y-120848514D01*
X91504152Y-120746924D01*
X91504153Y-120746921D01*
X91504156Y-120746919D01*
X91627802Y-120557665D01*
X91718611Y-120350641D01*
X91774107Y-120131493D01*
X91792775Y-119906200D01*
X91774107Y-119680907D01*
X91718611Y-119461759D01*
X91627802Y-119254735D01*
X91504156Y-119065481D01*
X91504155Y-119065480D01*
X91504152Y-119065475D01*
X91351049Y-118899162D01*
X91253704Y-118823395D01*
X91172649Y-118760307D01*
X91144832Y-118745253D01*
X91095243Y-118696036D01*
X91080135Y-118627820D01*
X91104305Y-118562264D01*
X91144831Y-118527146D01*
X91172649Y-118512093D01*
X91351046Y-118373240D01*
X91384250Y-118337171D01*
X91504152Y-118206924D01*
X91504153Y-118206921D01*
X91504156Y-118206919D01*
X91627802Y-118017665D01*
X91718611Y-117810641D01*
X91774107Y-117591493D01*
X91792775Y-117366200D01*
X91774107Y-117140907D01*
X91718611Y-116921759D01*
X91627802Y-116714735D01*
X91512988Y-116539000D01*
X103401450Y-116539000D01*
X103421616Y-116808100D01*
X103472289Y-117030110D01*
X103481666Y-117071195D01*
X103580257Y-117322398D01*
X103715185Y-117556102D01*
X103883439Y-117767085D01*
X104081259Y-117950635D01*
X104304226Y-118102651D01*
X104547359Y-118219738D01*
X104805228Y-118299280D01*
X105072071Y-118339500D01*
X105341929Y-118339500D01*
X105608772Y-118299280D01*
X105866641Y-118219738D01*
X106109775Y-118102651D01*
X106332741Y-117950635D01*
X106530561Y-117767085D01*
X106698815Y-117556102D01*
X106833743Y-117322398D01*
X106932334Y-117071195D01*
X106992383Y-116808103D01*
X107012549Y-116539000D01*
X106992383Y-116269897D01*
X106932334Y-116006805D01*
X106833743Y-115755602D01*
X106698815Y-115521898D01*
X106530561Y-115310915D01*
X106453093Y-115239035D01*
X106332743Y-115127366D01*
X106221450Y-115051488D01*
X106109775Y-114975349D01*
X105866641Y-114858262D01*
X105787098Y-114833726D01*
X105608771Y-114778719D01*
X105341929Y-114738500D01*
X105072071Y-114738500D01*
X104805228Y-114778719D01*
X104547359Y-114858262D01*
X104304228Y-114975347D01*
X104081257Y-115127366D01*
X103883439Y-115310915D01*
X103715184Y-115521899D01*
X103580257Y-115755601D01*
X103481666Y-116006804D01*
X103421616Y-116269899D01*
X103401450Y-116539000D01*
X91512988Y-116539000D01*
X91504156Y-116525481D01*
X91504155Y-116525480D01*
X91504152Y-116525475D01*
X91351049Y-116359162D01*
X91236364Y-116269899D01*
X91172649Y-116220307D01*
X91144832Y-116205253D01*
X91095243Y-116156036D01*
X91080135Y-116087820D01*
X91104305Y-116022264D01*
X91144831Y-115987146D01*
X91172649Y-115972093D01*
X91351046Y-115833240D01*
X91366756Y-115816175D01*
X91504152Y-115666924D01*
X91504155Y-115666920D01*
X91504156Y-115666919D01*
X91627802Y-115477665D01*
X91718611Y-115270641D01*
X91774107Y-115051493D01*
X91792775Y-114826200D01*
X91774107Y-114600907D01*
X91718611Y-114381759D01*
X91627802Y-114174735D01*
X91504156Y-113985481D01*
X91504155Y-113985480D01*
X91504152Y-113985475D01*
X91351049Y-113819162D01*
X91235371Y-113729126D01*
X91172649Y-113680307D01*
X91144832Y-113665253D01*
X91095243Y-113616036D01*
X91080135Y-113547820D01*
X91104305Y-113482264D01*
X91144831Y-113447146D01*
X91172649Y-113432093D01*
X91351046Y-113293240D01*
X91373996Y-113268310D01*
X91504152Y-113126924D01*
X91504153Y-113126921D01*
X91504156Y-113126919D01*
X91627802Y-112937665D01*
X91718611Y-112730641D01*
X91774107Y-112511493D01*
X91792775Y-112286200D01*
X91774107Y-112060907D01*
X91718611Y-111841759D01*
X91627802Y-111634735D01*
X91504156Y-111445481D01*
X91504155Y-111445480D01*
X91504152Y-111445475D01*
X91351049Y-111279162D01*
X91233409Y-111187599D01*
X91172649Y-111140307D01*
X91144832Y-111125253D01*
X91095243Y-111076036D01*
X91080135Y-111007820D01*
X91104305Y-110942264D01*
X91144831Y-110907146D01*
X91172649Y-110892093D01*
X91351046Y-110753240D01*
X91364599Y-110738518D01*
X103280000Y-110738518D01*
X103280354Y-110745132D01*
X103286400Y-110801371D01*
X103336647Y-110936089D01*
X103422811Y-111051188D01*
X103537910Y-111137352D01*
X103672628Y-111187599D01*
X103728867Y-111193645D01*
X103735482Y-111194000D01*
X104830000Y-111194000D01*
X104830000Y-109998310D01*
X104838817Y-110003158D01*
X104997886Y-110044000D01*
X105120894Y-110044000D01*
X105242933Y-110028583D01*
X105329999Y-109994110D01*
X105330000Y-111194000D01*
X106424518Y-111194000D01*
X106431132Y-111193645D01*
X106487371Y-111187599D01*
X106622089Y-111137352D01*
X106737188Y-111051188D01*
X106823352Y-110936089D01*
X106873599Y-110801371D01*
X106879645Y-110745132D01*
X106880000Y-110738518D01*
X106880000Y-109644000D01*
X105680728Y-109644000D01*
X105703100Y-109596457D01*
X105733873Y-109435138D01*
X105723561Y-109271234D01*
X105682220Y-109144000D01*
X106880000Y-109144000D01*
X106880000Y-108049481D01*
X106879645Y-108042867D01*
X106873599Y-107986628D01*
X106823352Y-107851910D01*
X106737188Y-107736811D01*
X106622089Y-107650647D01*
X106487371Y-107600400D01*
X106431132Y-107594354D01*
X106424518Y-107594000D01*
X105330000Y-107594000D01*
X105330000Y-108789689D01*
X105321183Y-108784842D01*
X105162114Y-108744000D01*
X105039106Y-108744000D01*
X104917067Y-108759417D01*
X104830000Y-108793889D01*
X104830000Y-107594000D01*
X103735482Y-107594000D01*
X103728867Y-107594354D01*
X103672628Y-107600400D01*
X103537910Y-107650647D01*
X103422811Y-107736811D01*
X103336647Y-107851910D01*
X103286400Y-107986628D01*
X103280354Y-108042867D01*
X103280000Y-108049481D01*
X103280000Y-109144000D01*
X104479272Y-109144000D01*
X104456900Y-109191543D01*
X104426127Y-109352862D01*
X104436439Y-109516766D01*
X104477780Y-109644000D01*
X103280000Y-109644000D01*
X103280000Y-110738518D01*
X91364599Y-110738518D01*
X91470168Y-110623840D01*
X91504152Y-110586924D01*
X91504153Y-110586921D01*
X91504156Y-110586919D01*
X91627802Y-110397665D01*
X91718611Y-110190641D01*
X91774107Y-109971493D01*
X91792775Y-109746200D01*
X91774107Y-109520907D01*
X91718611Y-109301759D01*
X91627802Y-109094735D01*
X91504156Y-108905481D01*
X91504155Y-108905480D01*
X91504152Y-108905475D01*
X91351049Y-108739162D01*
X91172648Y-108600306D01*
X91144832Y-108585253D01*
X91095242Y-108536033D01*
X91080135Y-108467816D01*
X91104306Y-108402261D01*
X91144833Y-108367145D01*
X91172649Y-108352093D01*
X91351046Y-108213240D01*
X91501798Y-108049481D01*
X91504152Y-108046924D01*
X91504153Y-108046921D01*
X91504156Y-108046919D01*
X91627802Y-107857665D01*
X91718611Y-107650641D01*
X91774107Y-107431493D01*
X91792775Y-107206200D01*
X91791476Y-107190529D01*
X91784724Y-107109037D01*
X91774107Y-106980907D01*
X91718611Y-106761759D01*
X91641615Y-106586226D01*
X91627803Y-106554737D01*
X91532780Y-106409294D01*
X91504156Y-106365481D01*
X91504155Y-106365480D01*
X91504152Y-106365475D01*
X91351049Y-106199162D01*
X91245602Y-106117089D01*
X91172649Y-106060307D01*
X91144832Y-106045253D01*
X91095243Y-105996036D01*
X91080135Y-105927820D01*
X91104305Y-105862264D01*
X91144831Y-105827146D01*
X91172649Y-105812093D01*
X91351046Y-105673240D01*
X91398139Y-105622084D01*
X91504152Y-105506924D01*
X91504153Y-105506921D01*
X91504156Y-105506919D01*
X91627802Y-105317665D01*
X91718611Y-105110641D01*
X91774107Y-104891493D01*
X91792775Y-104666200D01*
X91774107Y-104440907D01*
X91762228Y-104394000D01*
X103274450Y-104394000D01*
X103294616Y-104663100D01*
X103295324Y-104666200D01*
X103354666Y-104926195D01*
X103453257Y-105177398D01*
X103588185Y-105411102D01*
X103756439Y-105622085D01*
X103954259Y-105805635D01*
X104177226Y-105957651D01*
X104420359Y-106074738D01*
X104678228Y-106154280D01*
X104945071Y-106194500D01*
X105214929Y-106194500D01*
X105481772Y-106154280D01*
X105739641Y-106074738D01*
X105982775Y-105957651D01*
X106205741Y-105805635D01*
X106403561Y-105622085D01*
X106571815Y-105411102D01*
X106706743Y-105177398D01*
X106805334Y-104926195D01*
X106865383Y-104663103D01*
X106885549Y-104394000D01*
X106865383Y-104124897D01*
X106805334Y-103861805D01*
X106706743Y-103610602D01*
X106571815Y-103376898D01*
X106403561Y-103165915D01*
X106368346Y-103133240D01*
X106205743Y-102982366D01*
X106148205Y-102943137D01*
X105982775Y-102830349D01*
X105739641Y-102713262D01*
X105660098Y-102688726D01*
X105481771Y-102633719D01*
X105214929Y-102593500D01*
X104945071Y-102593500D01*
X104678228Y-102633719D01*
X104420359Y-102713262D01*
X104177228Y-102830347D01*
X103954257Y-102982366D01*
X103756439Y-103165915D01*
X103588184Y-103376899D01*
X103453257Y-103610601D01*
X103354666Y-103861804D01*
X103294616Y-104124899D01*
X103274450Y-104394000D01*
X91762228Y-104394000D01*
X91718611Y-104221759D01*
X91627802Y-104014735D01*
X91504156Y-103825481D01*
X91504155Y-103825480D01*
X91504152Y-103825475D01*
X91351049Y-103659162D01*
X91288658Y-103610601D01*
X91172649Y-103520307D01*
X91144832Y-103505253D01*
X91095243Y-103456036D01*
X91080135Y-103387820D01*
X91104305Y-103322264D01*
X91144831Y-103287146D01*
X91172649Y-103272093D01*
X91351046Y-103133240D01*
X91351049Y-103133237D01*
X91504152Y-102966924D01*
X91504153Y-102966921D01*
X91504156Y-102966919D01*
X91627802Y-102777665D01*
X91718611Y-102570641D01*
X91774107Y-102351493D01*
X91792775Y-102126200D01*
X91774107Y-101900907D01*
X91718611Y-101681759D01*
X91627802Y-101474735D01*
X91504156Y-101285481D01*
X91504155Y-101285480D01*
X91504152Y-101285475D01*
X91351049Y-101119162D01*
X91293972Y-101074737D01*
X91172649Y-100980307D01*
X91144832Y-100965253D01*
X91095243Y-100916036D01*
X91080135Y-100847820D01*
X91104305Y-100782264D01*
X91144831Y-100747146D01*
X91172649Y-100732093D01*
X91351046Y-100593240D01*
X91351049Y-100593237D01*
X91504152Y-100426924D01*
X91504153Y-100426921D01*
X91504156Y-100426919D01*
X91627802Y-100237665D01*
X91718611Y-100030641D01*
X91774107Y-99811493D01*
X91792775Y-99586200D01*
X91776849Y-99393999D01*
X103274450Y-99393999D01*
X103294616Y-99663100D01*
X103308404Y-99723509D01*
X103354666Y-99926195D01*
X103453257Y-100177398D01*
X103588185Y-100411102D01*
X103756439Y-100622085D01*
X103954259Y-100805635D01*
X104177226Y-100957651D01*
X104420359Y-101074738D01*
X104678228Y-101154280D01*
X104945071Y-101194500D01*
X105214929Y-101194500D01*
X105481772Y-101154280D01*
X105739641Y-101074738D01*
X105982775Y-100957651D01*
X106205741Y-100805635D01*
X106403561Y-100622085D01*
X106571815Y-100411102D01*
X106706743Y-100177398D01*
X106805334Y-99926195D01*
X106865383Y-99663103D01*
X106885549Y-99394000D01*
X106865383Y-99124897D01*
X106805334Y-98861805D01*
X106706743Y-98610602D01*
X106571815Y-98376898D01*
X106403561Y-98165915D01*
X106403560Y-98165914D01*
X106205743Y-97982366D01*
X106148205Y-97943137D01*
X105982775Y-97830349D01*
X105739641Y-97713262D01*
X105660097Y-97688726D01*
X105481771Y-97633719D01*
X105214929Y-97593500D01*
X104945071Y-97593500D01*
X104678228Y-97633719D01*
X104420359Y-97713262D01*
X104177228Y-97830347D01*
X103954257Y-97982366D01*
X103756439Y-98165915D01*
X103588184Y-98376899D01*
X103453257Y-98610601D01*
X103354666Y-98861804D01*
X103294616Y-99124899D01*
X103274450Y-99393999D01*
X91776849Y-99393999D01*
X91774107Y-99360907D01*
X91718611Y-99141759D01*
X91627802Y-98934735D01*
X91504156Y-98745481D01*
X91504155Y-98745480D01*
X91504152Y-98745475D01*
X91351049Y-98579162D01*
X91180329Y-98446285D01*
X91172649Y-98440307D01*
X91144832Y-98425253D01*
X91095243Y-98376036D01*
X91080135Y-98307820D01*
X91104305Y-98242264D01*
X91144831Y-98207146D01*
X91172649Y-98192093D01*
X91351046Y-98053240D01*
X91407340Y-97992089D01*
X91504152Y-97886924D01*
X91504153Y-97886921D01*
X91504156Y-97886919D01*
X91627802Y-97697665D01*
X91718611Y-97490641D01*
X91774107Y-97271493D01*
X91792775Y-97046200D01*
X91774107Y-96820907D01*
X91718611Y-96601759D01*
X91636831Y-96415320D01*
X91627803Y-96394737D01*
X91504152Y-96205475D01*
X91351049Y-96039162D01*
X91297367Y-95997379D01*
X91172649Y-95900307D01*
X91144832Y-95885253D01*
X91095243Y-95836036D01*
X91080135Y-95767820D01*
X91104305Y-95702264D01*
X91144831Y-95667146D01*
X91172649Y-95652093D01*
X91351046Y-95513240D01*
X91351049Y-95513237D01*
X91504152Y-95346924D01*
X91504153Y-95346921D01*
X91504156Y-95346919D01*
X91627802Y-95157665D01*
X91718611Y-94950641D01*
X91774107Y-94731493D01*
X91792775Y-94506200D01*
X91792290Y-94500352D01*
X91785151Y-94414188D01*
X91774107Y-94280907D01*
X91728679Y-94101518D01*
X103407000Y-94101518D01*
X103407354Y-94108132D01*
X103413400Y-94164371D01*
X103463647Y-94299089D01*
X103549811Y-94414188D01*
X103664910Y-94500352D01*
X103799628Y-94550599D01*
X103855867Y-94556645D01*
X103862482Y-94557000D01*
X104957000Y-94557000D01*
X104957000Y-93361310D01*
X104965817Y-93366158D01*
X105124886Y-93407000D01*
X105247894Y-93407000D01*
X105369933Y-93391583D01*
X105457000Y-93357110D01*
X105457000Y-94557000D01*
X106551518Y-94557000D01*
X106558132Y-94556645D01*
X106614371Y-94550599D01*
X106749089Y-94500352D01*
X106864188Y-94414188D01*
X106950352Y-94299089D01*
X107000599Y-94164371D01*
X107006645Y-94108132D01*
X107007000Y-94101518D01*
X107007000Y-93007000D01*
X105807728Y-93007000D01*
X105830100Y-92959457D01*
X105860873Y-92798138D01*
X105850561Y-92634234D01*
X105809220Y-92507000D01*
X107007000Y-92507000D01*
X107007000Y-91412481D01*
X107006645Y-91405867D01*
X107000599Y-91349628D01*
X106950352Y-91214910D01*
X106864188Y-91099811D01*
X106749089Y-91013647D01*
X106614371Y-90963400D01*
X106558132Y-90957354D01*
X106551518Y-90957000D01*
X105457000Y-90957000D01*
X105457000Y-92152689D01*
X105448183Y-92147842D01*
X105289114Y-92107000D01*
X105166106Y-92107000D01*
X105044067Y-92122417D01*
X104957000Y-92156889D01*
X104957000Y-90957000D01*
X103862482Y-90957000D01*
X103855867Y-90957354D01*
X103799628Y-90963400D01*
X103664910Y-91013647D01*
X103549811Y-91099811D01*
X103463647Y-91214910D01*
X103413400Y-91349628D01*
X103407354Y-91405867D01*
X103407000Y-91412481D01*
X103407000Y-92507000D01*
X104606272Y-92507000D01*
X104583900Y-92554543D01*
X104553127Y-92715862D01*
X104563439Y-92879766D01*
X104604780Y-93007000D01*
X103407000Y-93007000D01*
X103407000Y-94101518D01*
X91728679Y-94101518D01*
X91718611Y-94061759D01*
X91627802Y-93854735D01*
X91504156Y-93665481D01*
X91504155Y-93665480D01*
X91504152Y-93665475D01*
X91351049Y-93499162D01*
X91272797Y-93438256D01*
X91172649Y-93360307D01*
X91144832Y-93345253D01*
X91095243Y-93296036D01*
X91080135Y-93227820D01*
X91104305Y-93162264D01*
X91144831Y-93127146D01*
X91172649Y-93112093D01*
X91351046Y-92973240D01*
X91381646Y-92940000D01*
X91504152Y-92806924D01*
X91504153Y-92806921D01*
X91504156Y-92806919D01*
X91627802Y-92617665D01*
X91718611Y-92410641D01*
X91774107Y-92191493D01*
X91792775Y-91966200D01*
X91774107Y-91740907D01*
X91718611Y-91521759D01*
X91627802Y-91314735D01*
X91504156Y-91125481D01*
X91504155Y-91125480D01*
X91504152Y-91125475D01*
X91351049Y-90959162D01*
X91172650Y-90820308D01*
X91172649Y-90820307D01*
X90973831Y-90712712D01*
X90973830Y-90712711D01*
X90973827Y-90712710D01*
X90760016Y-90639309D01*
X90611359Y-90614503D01*
X90537033Y-90602100D01*
X90310967Y-90602100D01*
X90255221Y-90611402D01*
X90087983Y-90639309D01*
X89874172Y-90712710D01*
X89675349Y-90820308D01*
X89496950Y-90959162D01*
X89343847Y-91125475D01*
X89220196Y-91314737D01*
X89129390Y-91521756D01*
X89073892Y-91740911D01*
X89055224Y-91966200D01*
X89073892Y-92191488D01*
X89073892Y-92191491D01*
X89073893Y-92191493D01*
X89123872Y-92388856D01*
X89129390Y-92410643D01*
X89220196Y-92617662D01*
X89343847Y-92806924D01*
X89496950Y-92973237D01*
X89496954Y-92973240D01*
X89675351Y-93112093D01*
X89675353Y-93112094D01*
X89703166Y-93127146D01*
X89752756Y-93176365D01*
X89767864Y-93244582D01*
X89743693Y-93310137D01*
X89703166Y-93345254D01*
X89675353Y-93360305D01*
X89496950Y-93499162D01*
X89343847Y-93665475D01*
X89220196Y-93854737D01*
X89129390Y-94061756D01*
X89073892Y-94280911D01*
X89055224Y-94506199D01*
X89073892Y-94731488D01*
X89129390Y-94950643D01*
X89220196Y-95157662D01*
X89343847Y-95346924D01*
X89496950Y-95513237D01*
X89496954Y-95513240D01*
X89675351Y-95652093D01*
X89675353Y-95652094D01*
X89703166Y-95667146D01*
X89752756Y-95716365D01*
X89767864Y-95784582D01*
X89743693Y-95850137D01*
X89703166Y-95885254D01*
X89675353Y-95900305D01*
X89496950Y-96039162D01*
X89343847Y-96205475D01*
X89220196Y-96394737D01*
X89129390Y-96601756D01*
X89073892Y-96820911D01*
X89055224Y-97046200D01*
X89073892Y-97271488D01*
X89073892Y-97271491D01*
X89073893Y-97271493D01*
X89125665Y-97475937D01*
X89129390Y-97490643D01*
X89176608Y-97598290D01*
X89185511Y-97667590D01*
X89155534Y-97730702D01*
X89096194Y-97767589D01*
X89063052Y-97772100D01*
X71464948Y-97772100D01*
X71397909Y-97752415D01*
X71352154Y-97699611D01*
X71342210Y-97630453D01*
X71351392Y-97598290D01*
X71361246Y-97575825D01*
X71398611Y-97490641D01*
X71454107Y-97271493D01*
X71472775Y-97046200D01*
X71454107Y-96820907D01*
X71398611Y-96601759D01*
X71316831Y-96415320D01*
X71307803Y-96394737D01*
X71184152Y-96205475D01*
X71031049Y-96039162D01*
X70977367Y-95997379D01*
X70852649Y-95900307D01*
X70824832Y-95885253D01*
X70775243Y-95836036D01*
X70760135Y-95767820D01*
X70784305Y-95702264D01*
X70824831Y-95667146D01*
X70852649Y-95652093D01*
X71031046Y-95513240D01*
X71031049Y-95513237D01*
X71184152Y-95346924D01*
X71184153Y-95346921D01*
X71184156Y-95346919D01*
X71307802Y-95157665D01*
X71398611Y-94950641D01*
X71454107Y-94731493D01*
X71472775Y-94506200D01*
X71454107Y-94280907D01*
X71398611Y-94061759D01*
X71307802Y-93854735D01*
X71184156Y-93665481D01*
X71184155Y-93665480D01*
X71184152Y-93665475D01*
X71031049Y-93499162D01*
X70952797Y-93438256D01*
X70852649Y-93360307D01*
X70824832Y-93345253D01*
X70775243Y-93296036D01*
X70760135Y-93227820D01*
X70784305Y-93162264D01*
X70824831Y-93127146D01*
X70852649Y-93112093D01*
X71031046Y-92973240D01*
X71061646Y-92940000D01*
X71184152Y-92806924D01*
X71184153Y-92806921D01*
X71184156Y-92806919D01*
X71307802Y-92617665D01*
X71398611Y-92410641D01*
X71454107Y-92191493D01*
X71472775Y-91966200D01*
X71454107Y-91740907D01*
X71398611Y-91521759D01*
X71307802Y-91314735D01*
X71184156Y-91125481D01*
X71184155Y-91125480D01*
X71184152Y-91125475D01*
X71031049Y-90959162D01*
X70852650Y-90820308D01*
X70852649Y-90820307D01*
X70653831Y-90712712D01*
X70653830Y-90712711D01*
X70653827Y-90712710D01*
X70440016Y-90639309D01*
X70291360Y-90614503D01*
X70217033Y-90602100D01*
X69990967Y-90602100D01*
X69935221Y-90611402D01*
X69767983Y-90639309D01*
X69554172Y-90712710D01*
X69355349Y-90820308D01*
X69176950Y-90959162D01*
X69023847Y-91125475D01*
X68900196Y-91314737D01*
X68809390Y-91521756D01*
X68753892Y-91740911D01*
X68735224Y-91966199D01*
X68753892Y-92191488D01*
X68753892Y-92191491D01*
X68753893Y-92191493D01*
X68803872Y-92388856D01*
X68809390Y-92410643D01*
X68900196Y-92617662D01*
X69023847Y-92806924D01*
X69176950Y-92973237D01*
X69176954Y-92973240D01*
X69355351Y-93112093D01*
X69355353Y-93112094D01*
X69383166Y-93127146D01*
X69432756Y-93176365D01*
X69447864Y-93244582D01*
X69423693Y-93310137D01*
X69383166Y-93345254D01*
X69355353Y-93360305D01*
X69176950Y-93499162D01*
X69023847Y-93665475D01*
X68900196Y-93854737D01*
X68809390Y-94061756D01*
X68753892Y-94280911D01*
X68735224Y-94506200D01*
X68753892Y-94731488D01*
X68809390Y-94950643D01*
X68900196Y-95157662D01*
X69023847Y-95346924D01*
X69176950Y-95513237D01*
X69176954Y-95513240D01*
X69355351Y-95652093D01*
X69355353Y-95652094D01*
X69383166Y-95667146D01*
X69432756Y-95716365D01*
X69447864Y-95784582D01*
X69423693Y-95850137D01*
X69383166Y-95885254D01*
X69355353Y-95900305D01*
X69176950Y-96039162D01*
X69023847Y-96205475D01*
X68900196Y-96394737D01*
X68809390Y-96601756D01*
X68753892Y-96820911D01*
X68735224Y-97046200D01*
X68753892Y-97271488D01*
X68753892Y-97271491D01*
X68753893Y-97271493D01*
X68805665Y-97475937D01*
X68809390Y-97490643D01*
X68856608Y-97598290D01*
X68865511Y-97667590D01*
X68835534Y-97730702D01*
X68776194Y-97767589D01*
X68743052Y-97772100D01*
X65618052Y-97772100D01*
X65551013Y-97752415D01*
X65530371Y-97735781D01*
X61190237Y-93395646D01*
X61156752Y-93334323D01*
X61158143Y-93275872D01*
X61185063Y-93175408D01*
X61189286Y-93127146D01*
X61205659Y-92940000D01*
X61185063Y-92704592D01*
X61160959Y-92614635D01*
X61123903Y-92476337D01*
X61024035Y-92262171D01*
X60888495Y-92068599D01*
X60766569Y-91946673D01*
X60733084Y-91885350D01*
X60738068Y-91815658D01*
X60779940Y-91759725D01*
X60810915Y-91742810D01*
X60942331Y-91693796D01*
X61057546Y-91607546D01*
X61143796Y-91492331D01*
X61194091Y-91357483D01*
X61200500Y-91297873D01*
X61200499Y-89502128D01*
X61194091Y-89442517D01*
X61143796Y-89307669D01*
X61057546Y-89192454D01*
X60942331Y-89106204D01*
X60807483Y-89055909D01*
X60747873Y-89049500D01*
X60744550Y-89049500D01*
X58955439Y-89049500D01*
X58955420Y-89049500D01*
X58952128Y-89049501D01*
X58948848Y-89049853D01*
X58948840Y-89049854D01*
X58892515Y-89055909D01*
X58757669Y-89106204D01*
X58642454Y-89192454D01*
X58556204Y-89307668D01*
X58505910Y-89442515D01*
X58505909Y-89442517D01*
X58499500Y-89502127D01*
X58499500Y-89505449D01*
X58499500Y-90814546D01*
X58479815Y-90881585D01*
X58463181Y-90902227D01*
X56816208Y-92549199D01*
X56800110Y-92562096D01*
X56752096Y-92613225D01*
X56749392Y-92616016D01*
X56732628Y-92632780D01*
X56732621Y-92632787D01*
X56729880Y-92635529D01*
X56727499Y-92638597D01*
X56727490Y-92638608D01*
X56727411Y-92638711D01*
X56719842Y-92647572D01*
X56689935Y-92679420D01*
X56680285Y-92696974D01*
X56669609Y-92713228D01*
X56657326Y-92729063D01*
X56639975Y-92769158D01*
X56634838Y-92779644D01*
X56613802Y-92817907D01*
X56608821Y-92837309D01*
X56602520Y-92855711D01*
X56594561Y-92874102D01*
X56587728Y-92917242D01*
X56585360Y-92928674D01*
X56574500Y-92970977D01*
X56574500Y-92991016D01*
X56572972Y-93010414D01*
X56569840Y-93030196D01*
X25000500Y-93030196D01*
X25000500Y-87870999D01*
X68658340Y-87870999D01*
X68678936Y-88106407D01*
X68727914Y-88289195D01*
X68740097Y-88334663D01*
X68839965Y-88548829D01*
X68975505Y-88742401D01*
X69142599Y-88909495D01*
X69336171Y-89045035D01*
X69550337Y-89144903D01*
X69778592Y-89206063D01*
X69955034Y-89221500D01*
X69957742Y-89221500D01*
X70070258Y-89221500D01*
X70072966Y-89221500D01*
X70249408Y-89206063D01*
X70477663Y-89144903D01*
X70691829Y-89045035D01*
X70885401Y-88909495D01*
X71052495Y-88742401D01*
X71188035Y-88548830D01*
X71287903Y-88334663D01*
X71349063Y-88106408D01*
X71369659Y-87871000D01*
X71349063Y-87635592D01*
X71287903Y-87407337D01*
X71188035Y-87193171D01*
X71052495Y-86999599D01*
X70885401Y-86832505D01*
X70691829Y-86696965D01*
X70477663Y-86597097D01*
X70477662Y-86597096D01*
X70249407Y-86535936D01*
X70075667Y-86520736D01*
X70075659Y-86520735D01*
X70072966Y-86520500D01*
X69955034Y-86520500D01*
X69952341Y-86520735D01*
X69952332Y-86520736D01*
X69778592Y-86535936D01*
X69550336Y-86597097D01*
X69336170Y-86696965D01*
X69142598Y-86832505D01*
X68975508Y-86999595D01*
X68839964Y-87193172D01*
X68740097Y-87407337D01*
X68678936Y-87635592D01*
X68658340Y-87870999D01*
X25000500Y-87870999D01*
X25000500Y-86440000D01*
X58494340Y-86440000D01*
X58514936Y-86675407D01*
X58559709Y-86842501D01*
X58576097Y-86903663D01*
X58675965Y-87117830D01*
X58811505Y-87311401D01*
X58978599Y-87478495D01*
X59172170Y-87614035D01*
X59386337Y-87713903D01*
X59614592Y-87775063D01*
X59850000Y-87795659D01*
X60085408Y-87775063D01*
X60313663Y-87713903D01*
X60527830Y-87614035D01*
X60721401Y-87478495D01*
X60888495Y-87311401D01*
X61024035Y-87117830D01*
X61123903Y-86903663D01*
X61185063Y-86675408D01*
X61205659Y-86440000D01*
X61200856Y-86385108D01*
X61185063Y-86204592D01*
X61182050Y-86193347D01*
X61123903Y-85976337D01*
X61024035Y-85762171D01*
X60888495Y-85568599D01*
X60766181Y-85446285D01*
X60732696Y-85384962D01*
X60737680Y-85315270D01*
X60779552Y-85259337D01*
X60810528Y-85242422D01*
X60942089Y-85193352D01*
X61057188Y-85107188D01*
X61143352Y-84992089D01*
X61193599Y-84857371D01*
X61199645Y-84801132D01*
X61200000Y-84794518D01*
X61200000Y-84150000D01*
X60283686Y-84150000D01*
X60309493Y-84109844D01*
X60350000Y-83971889D01*
X60350000Y-83828111D01*
X60309493Y-83690156D01*
X60283686Y-83650000D01*
X61200000Y-83650000D01*
X61200000Y-83005481D01*
X61199645Y-82998867D01*
X61193599Y-82942628D01*
X61143352Y-82807910D01*
X61057188Y-82692811D01*
X60942089Y-82606647D01*
X60807371Y-82556400D01*
X60751132Y-82550354D01*
X60744518Y-82550000D01*
X60100000Y-82550000D01*
X60100000Y-83464498D01*
X59992315Y-83415320D01*
X59885763Y-83400000D01*
X59814237Y-83400000D01*
X59707685Y-83415320D01*
X59600000Y-83464498D01*
X59600000Y-82550000D01*
X58955482Y-82550000D01*
X58948867Y-82550354D01*
X58892628Y-82556400D01*
X58757910Y-82606647D01*
X58642811Y-82692811D01*
X58556647Y-82807910D01*
X58506400Y-82942628D01*
X58500354Y-82998867D01*
X58500000Y-83005481D01*
X58500000Y-83650000D01*
X59416314Y-83650000D01*
X59390507Y-83690156D01*
X59350000Y-83828111D01*
X59350000Y-83971889D01*
X59390507Y-84109844D01*
X59416314Y-84150000D01*
X58500000Y-84150000D01*
X58500000Y-84794518D01*
X58500354Y-84801132D01*
X58506400Y-84857371D01*
X58556647Y-84992089D01*
X58642811Y-85107188D01*
X58757911Y-85193352D01*
X58889471Y-85242422D01*
X58945404Y-85284294D01*
X58969821Y-85349758D01*
X58954969Y-85418031D01*
X58933819Y-85446285D01*
X58811503Y-85568601D01*
X58675965Y-85762170D01*
X58576097Y-85976336D01*
X58514936Y-86204592D01*
X58494340Y-86440000D01*
X25000500Y-86440000D01*
X25000500Y-85024334D01*
X29349500Y-85024334D01*
X29390429Y-85269615D01*
X29451080Y-85446285D01*
X29471172Y-85504810D01*
X29589526Y-85723509D01*
X29589529Y-85723514D01*
X29725036Y-85897612D01*
X29742262Y-85919744D01*
X29925215Y-86088164D01*
X30133393Y-86224173D01*
X30361119Y-86324063D01*
X30602179Y-86385108D01*
X30787933Y-86400500D01*
X30790503Y-86400500D01*
X30909497Y-86400500D01*
X30912067Y-86400500D01*
X31097821Y-86385108D01*
X31338881Y-86324063D01*
X31566607Y-86224173D01*
X31774785Y-86088164D01*
X31957738Y-85919744D01*
X32110474Y-85723509D01*
X32228828Y-85504810D01*
X32309571Y-85269614D01*
X32350500Y-85024335D01*
X32350500Y-84775665D01*
X32309571Y-84530386D01*
X32228828Y-84295190D01*
X32110474Y-84076491D01*
X32110471Y-84076487D01*
X32110470Y-84076485D01*
X31957740Y-83880259D01*
X31957738Y-83880256D01*
X31774785Y-83711836D01*
X31566607Y-83575827D01*
X31566604Y-83575825D01*
X31441523Y-83520960D01*
X31338881Y-83475937D01*
X31158867Y-83430351D01*
X31097822Y-83414892D01*
X31063854Y-83412077D01*
X30912067Y-83399500D01*
X30787933Y-83399500D01*
X30670111Y-83409262D01*
X30602177Y-83414892D01*
X30480087Y-83445810D01*
X30361119Y-83475937D01*
X30361116Y-83475938D01*
X30361117Y-83475938D01*
X30133395Y-83575825D01*
X30019862Y-83650000D01*
X29925215Y-83711836D01*
X29925213Y-83711837D01*
X29925214Y-83711837D01*
X29742259Y-83880259D01*
X29589529Y-84076485D01*
X29471170Y-84295194D01*
X29390429Y-84530384D01*
X29349500Y-84775665D01*
X29349500Y-85024334D01*
X25000500Y-85024334D01*
X25000500Y-79250000D01*
X45594540Y-79250000D01*
X45614326Y-79438257D01*
X45672820Y-79618284D01*
X45767466Y-79782216D01*
X45894129Y-79922889D01*
X46047269Y-80034151D01*
X46220197Y-80111144D01*
X46405352Y-80150500D01*
X46405354Y-80150500D01*
X46594648Y-80150500D01*
X46718084Y-80124262D01*
X46779803Y-80111144D01*
X46952730Y-80034151D01*
X47105871Y-79922888D01*
X47111598Y-79916527D01*
X47171084Y-79879879D01*
X47203747Y-79875500D01*
X67939548Y-79875500D01*
X68006587Y-79895185D01*
X68027229Y-79911819D01*
X81311038Y-93195629D01*
X81344523Y-93256952D01*
X81346678Y-93270348D01*
X81364326Y-93438257D01*
X81422820Y-93618284D01*
X81517466Y-93782216D01*
X81644129Y-93922889D01*
X81797269Y-94034151D01*
X81970197Y-94111144D01*
X82155352Y-94150500D01*
X82155354Y-94150500D01*
X82344648Y-94150500D01*
X82468084Y-94124262D01*
X82529803Y-94111144D01*
X82702730Y-94034151D01*
X82855871Y-93922888D01*
X82982533Y-93782216D01*
X83077179Y-93618284D01*
X83135674Y-93438256D01*
X83155460Y-93250000D01*
X83135674Y-93061744D01*
X83077179Y-92881716D01*
X83077179Y-92881715D01*
X82982533Y-92717783D01*
X82855870Y-92577110D01*
X82702730Y-92465848D01*
X82529802Y-92388855D01*
X82344648Y-92349500D01*
X82344646Y-92349500D01*
X82285452Y-92349500D01*
X82218413Y-92329815D01*
X82197771Y-92313181D01*
X77755590Y-87871000D01*
X89158340Y-87871000D01*
X89178936Y-88106407D01*
X89227914Y-88289195D01*
X89240097Y-88334663D01*
X89339965Y-88548829D01*
X89475505Y-88742401D01*
X89642599Y-88909495D01*
X89836171Y-89045035D01*
X90050337Y-89144903D01*
X90278592Y-89206063D01*
X90455034Y-89221500D01*
X90457742Y-89221500D01*
X90570258Y-89221500D01*
X90572966Y-89221500D01*
X90749408Y-89206063D01*
X90977663Y-89144903D01*
X91191829Y-89045035D01*
X91385401Y-88909495D01*
X91552495Y-88742401D01*
X91688035Y-88548830D01*
X91787903Y-88334663D01*
X91849063Y-88106408D01*
X91869659Y-87871000D01*
X91859685Y-87757000D01*
X103401450Y-87757000D01*
X103421616Y-88026100D01*
X103421617Y-88026103D01*
X103481666Y-88289195D01*
X103580257Y-88540398D01*
X103715185Y-88774102D01*
X103883439Y-88985085D01*
X104081259Y-89168635D01*
X104304226Y-89320651D01*
X104547359Y-89437738D01*
X104805228Y-89517280D01*
X105072071Y-89557500D01*
X105341929Y-89557500D01*
X105608772Y-89517280D01*
X105866641Y-89437738D01*
X106109775Y-89320651D01*
X106332741Y-89168635D01*
X106530561Y-88985085D01*
X106698815Y-88774102D01*
X106833743Y-88540398D01*
X106932334Y-88289195D01*
X106992383Y-88026103D01*
X107012549Y-87757000D01*
X106992383Y-87487897D01*
X106932334Y-87224805D01*
X106833743Y-86973602D01*
X106698815Y-86739898D01*
X106530561Y-86528915D01*
X106521492Y-86520500D01*
X106332743Y-86345366D01*
X106275205Y-86306137D01*
X106109775Y-86193349D01*
X105866641Y-86076262D01*
X105787098Y-86051726D01*
X105608771Y-85996719D01*
X105341929Y-85956500D01*
X105072071Y-85956500D01*
X104805228Y-85996719D01*
X104547359Y-86076262D01*
X104304228Y-86193347D01*
X104081257Y-86345366D01*
X103883439Y-86528915D01*
X103715184Y-86739899D01*
X103580257Y-86973601D01*
X103481666Y-87224804D01*
X103421616Y-87487899D01*
X103401450Y-87757000D01*
X91859685Y-87757000D01*
X91849063Y-87635592D01*
X91787903Y-87407337D01*
X91688035Y-87193171D01*
X91552495Y-86999599D01*
X91385401Y-86832505D01*
X91191829Y-86696965D01*
X90977663Y-86597097D01*
X90977663Y-86597096D01*
X90749407Y-86535936D01*
X90575667Y-86520736D01*
X90575659Y-86520735D01*
X90572966Y-86520500D01*
X90455034Y-86520500D01*
X90452341Y-86520735D01*
X90452332Y-86520736D01*
X90278592Y-86535936D01*
X90050336Y-86597097D01*
X89836170Y-86696965D01*
X89642598Y-86832505D01*
X89475508Y-86999595D01*
X89339964Y-87193172D01*
X89240097Y-87407337D01*
X89178936Y-87635592D01*
X89158340Y-87871000D01*
X77755590Y-87871000D01*
X72641591Y-82757000D01*
X103401450Y-82757000D01*
X103421616Y-83026100D01*
X103421617Y-83026103D01*
X103481666Y-83289195D01*
X103580257Y-83540398D01*
X103715185Y-83774102D01*
X103883439Y-83985085D01*
X104081259Y-84168635D01*
X104304226Y-84320651D01*
X104547359Y-84437738D01*
X104805228Y-84517280D01*
X105072071Y-84557500D01*
X105341929Y-84557500D01*
X105608772Y-84517280D01*
X105866641Y-84437738D01*
X106109775Y-84320651D01*
X106332741Y-84168635D01*
X106530561Y-83985085D01*
X106698815Y-83774102D01*
X106833743Y-83540398D01*
X106932334Y-83289195D01*
X106992383Y-83026103D01*
X107012549Y-82757000D01*
X106992383Y-82487897D01*
X106932334Y-82224805D01*
X106833743Y-81973602D01*
X106698815Y-81739898D01*
X106530561Y-81528915D01*
X106530560Y-81528914D01*
X106332743Y-81345366D01*
X106275205Y-81306137D01*
X106109775Y-81193349D01*
X105866641Y-81076262D01*
X105787098Y-81051726D01*
X105608771Y-80996719D01*
X105341929Y-80956500D01*
X105072071Y-80956500D01*
X104805228Y-80996719D01*
X104547359Y-81076262D01*
X104304228Y-81193347D01*
X104081257Y-81345366D01*
X103883439Y-81528915D01*
X103715184Y-81739899D01*
X103580257Y-81973601D01*
X103481666Y-82224804D01*
X103421616Y-82487899D01*
X103401450Y-82757000D01*
X72641591Y-82757000D01*
X68750802Y-78866211D01*
X68737906Y-78850113D01*
X68686775Y-78802098D01*
X68683978Y-78799387D01*
X68667227Y-78782636D01*
X68664471Y-78779880D01*
X68661290Y-78777412D01*
X68652422Y-78769837D01*
X68620582Y-78739938D01*
X68603024Y-78730285D01*
X68586764Y-78719604D01*
X68570936Y-78707327D01*
X68530851Y-78689980D01*
X68520361Y-78684841D01*
X68482091Y-78663802D01*
X68462691Y-78658821D01*
X68444284Y-78652519D01*
X68425897Y-78644562D01*
X68382758Y-78637729D01*
X68371324Y-78635361D01*
X68329019Y-78624500D01*
X68308984Y-78624500D01*
X68289586Y-78622973D01*
X68282162Y-78621797D01*
X68269805Y-78619840D01*
X68269804Y-78619840D01*
X68236751Y-78622964D01*
X68226325Y-78623950D01*
X68214656Y-78624500D01*
X47203747Y-78624500D01*
X47136708Y-78604815D01*
X47111599Y-78583473D01*
X47105871Y-78577112D01*
X46952730Y-78465849D01*
X46952729Y-78465848D01*
X46952727Y-78465847D01*
X46779802Y-78388855D01*
X46594648Y-78349500D01*
X46594646Y-78349500D01*
X46405354Y-78349500D01*
X46405352Y-78349500D01*
X46220197Y-78388855D01*
X46047269Y-78465848D01*
X45894129Y-78577110D01*
X45767466Y-78717783D01*
X45672820Y-78881715D01*
X45614326Y-79061742D01*
X45594540Y-79250000D01*
X25000500Y-79250000D01*
X25000500Y-75675000D01*
X68896389Y-75675000D01*
X68916804Y-75960429D01*
X68977629Y-76240041D01*
X69077634Y-76508163D01*
X69214772Y-76759313D01*
X69300517Y-76873854D01*
X69386261Y-76988395D01*
X69588605Y-77190739D01*
X69760415Y-77319354D01*
X69817686Y-77362227D01*
X69957435Y-77438535D01*
X70068839Y-77499367D01*
X70336954Y-77599369D01*
X70336957Y-77599369D01*
X70336958Y-77599370D01*
X70389217Y-77610738D01*
X70616572Y-77660196D01*
X70902000Y-77680610D01*
X71187428Y-77660196D01*
X71467046Y-77599369D01*
X71735161Y-77499367D01*
X71986315Y-77362226D01*
X72215395Y-77190739D01*
X72417739Y-76988395D01*
X72589226Y-76759315D01*
X72726367Y-76508161D01*
X72826369Y-76240046D01*
X72887196Y-75960428D01*
X72907610Y-75675000D01*
X99316389Y-75675000D01*
X99336804Y-75960429D01*
X99397629Y-76240041D01*
X99497634Y-76508163D01*
X99634772Y-76759313D01*
X99720517Y-76873855D01*
X99806261Y-76988395D01*
X100008605Y-77190739D01*
X100180415Y-77319354D01*
X100237686Y-77362227D01*
X100377435Y-77438535D01*
X100488839Y-77499367D01*
X100756954Y-77599369D01*
X100756957Y-77599369D01*
X100756958Y-77599370D01*
X100809217Y-77610738D01*
X101036572Y-77660196D01*
X101322000Y-77680610D01*
X101607428Y-77660196D01*
X101887046Y-77599369D01*
X102155161Y-77499367D01*
X102406315Y-77362226D01*
X102635395Y-77190739D01*
X102837739Y-76988395D01*
X103009226Y-76759315D01*
X103146367Y-76508161D01*
X103246369Y-76240046D01*
X103307196Y-75960428D01*
X103327610Y-75675000D01*
X103307196Y-75389572D01*
X103246369Y-75109954D01*
X103146367Y-74841839D01*
X103009226Y-74590685D01*
X102837739Y-74361605D01*
X102635395Y-74159261D01*
X102520854Y-74073517D01*
X102406313Y-73987772D01*
X102155163Y-73850634D01*
X102155162Y-73850633D01*
X102155161Y-73850633D01*
X101887046Y-73750631D01*
X101887041Y-73750629D01*
X101607429Y-73689804D01*
X101322000Y-73669389D01*
X101036570Y-73689804D01*
X100756958Y-73750629D01*
X100488836Y-73850634D01*
X100237686Y-73987772D01*
X100008602Y-74159263D01*
X99806263Y-74361602D01*
X99634772Y-74590686D01*
X99497634Y-74841836D01*
X99397629Y-75109958D01*
X99336804Y-75389570D01*
X99316389Y-75675000D01*
X72907610Y-75675000D01*
X72887196Y-75389572D01*
X72826369Y-75109954D01*
X72726367Y-74841839D01*
X72589226Y-74590685D01*
X72417739Y-74361605D01*
X72215395Y-74159261D01*
X72100855Y-74073517D01*
X71986313Y-73987772D01*
X71735163Y-73850634D01*
X71735162Y-73850633D01*
X71735161Y-73850633D01*
X71467046Y-73750631D01*
X71467041Y-73750629D01*
X71187429Y-73689804D01*
X70902000Y-73669389D01*
X70616570Y-73689804D01*
X70336958Y-73750629D01*
X70068836Y-73850634D01*
X69817686Y-73987772D01*
X69588602Y-74159263D01*
X69386263Y-74361602D01*
X69214772Y-74590686D01*
X69077634Y-74841836D01*
X68977629Y-75109958D01*
X68916804Y-75389570D01*
X68896389Y-75675000D01*
X25000500Y-75675000D01*
X25000500Y-71040000D01*
X31214952Y-71040000D01*
X31235113Y-71309026D01*
X31295146Y-71572049D01*
X31393708Y-71823178D01*
X31528598Y-72056816D01*
X31582295Y-72124150D01*
X32417452Y-71288993D01*
X32427188Y-71318956D01*
X32515186Y-71457619D01*
X32634903Y-71570040D01*
X32769510Y-71644041D01*
X31934848Y-72478702D01*
X32117479Y-72603217D01*
X32360542Y-72720270D01*
X32618339Y-72799791D01*
X32885109Y-72840000D01*
X33154891Y-72840000D01*
X33421660Y-72799791D01*
X33679460Y-72720270D01*
X33922523Y-72603217D01*
X34105150Y-72478702D01*
X33267534Y-71641086D01*
X33335629Y-71614126D01*
X33468492Y-71517595D01*
X33573175Y-71391055D01*
X33621631Y-71288080D01*
X34457703Y-72124151D01*
X34511400Y-72056818D01*
X34646291Y-71823178D01*
X34744853Y-71572049D01*
X34804886Y-71309026D01*
X34825047Y-71040000D01*
X34804886Y-70770973D01*
X34744853Y-70507950D01*
X34646291Y-70256821D01*
X34511398Y-70023178D01*
X34457704Y-69955847D01*
X33622546Y-70791004D01*
X33612812Y-70761044D01*
X33524814Y-70622381D01*
X33405097Y-70509960D01*
X33270489Y-70435958D01*
X34105150Y-69601296D01*
X33922519Y-69476780D01*
X33679460Y-69359729D01*
X33421660Y-69280208D01*
X33154891Y-69240000D01*
X32885109Y-69240000D01*
X32618339Y-69280208D01*
X32360542Y-69359729D01*
X32117476Y-69476783D01*
X31934848Y-69601296D01*
X32772465Y-70438913D01*
X32704371Y-70465874D01*
X32571508Y-70562405D01*
X32466825Y-70688945D01*
X32418368Y-70791921D01*
X31582295Y-69955848D01*
X31528598Y-70023182D01*
X31393708Y-70256821D01*
X31295146Y-70507950D01*
X31235113Y-70770973D01*
X31214952Y-71040000D01*
X25000500Y-71040000D01*
X25000500Y-68075000D01*
X62794540Y-68075000D01*
X62814326Y-68263257D01*
X62872820Y-68443284D01*
X62967466Y-68607216D01*
X63094129Y-68747889D01*
X63247269Y-68859151D01*
X63420197Y-68936144D01*
X63605352Y-68975500D01*
X63605354Y-68975500D01*
X63794648Y-68975500D01*
X63918084Y-68949262D01*
X63979803Y-68936144D01*
X64152730Y-68859151D01*
X64305871Y-68747888D01*
X64432533Y-68607216D01*
X64527179Y-68443284D01*
X64585674Y-68263256D01*
X64603321Y-68095344D01*
X64629904Y-68030734D01*
X64638951Y-68020639D01*
X65486571Y-67173019D01*
X65547895Y-67139534D01*
X65574253Y-67136700D01*
X68707773Y-67136700D01*
X68774812Y-67156385D01*
X68809345Y-67189573D01*
X68944505Y-67382601D01*
X69111599Y-67549695D01*
X69297160Y-67679626D01*
X69340783Y-67734202D01*
X69347976Y-67803701D01*
X69316454Y-67866055D01*
X69297159Y-67882775D01*
X69111595Y-68012708D01*
X68944505Y-68179798D01*
X68808965Y-68373370D01*
X68709097Y-68587536D01*
X68647936Y-68815792D01*
X68627340Y-69051199D01*
X68647936Y-69286607D01*
X68667529Y-69359729D01*
X68709097Y-69514863D01*
X68808965Y-69729030D01*
X68944505Y-69922601D01*
X69111599Y-70089695D01*
X69305170Y-70225235D01*
X69519337Y-70325103D01*
X69747592Y-70386263D01*
X69983000Y-70406859D01*
X70218408Y-70386263D01*
X70446663Y-70325103D01*
X70660830Y-70225235D01*
X70854401Y-70089695D01*
X71021495Y-69922601D01*
X71157035Y-69729030D01*
X71256903Y-69514863D01*
X71318063Y-69286608D01*
X71338659Y-69051200D01*
X71318063Y-68815792D01*
X71256903Y-68587537D01*
X71157035Y-68373371D01*
X71021495Y-68179799D01*
X70854401Y-68012705D01*
X70668839Y-67882773D01*
X70625216Y-67828198D01*
X70618022Y-67758700D01*
X70649545Y-67696345D01*
X70668837Y-67679628D01*
X70854401Y-67549695D01*
X71021495Y-67382601D01*
X71157035Y-67189030D01*
X71256903Y-66974863D01*
X71318063Y-66746608D01*
X71338659Y-66511200D01*
X71318063Y-66275792D01*
X71256903Y-66047537D01*
X71157035Y-65833371D01*
X71021495Y-65639799D01*
X70854401Y-65472705D01*
X70668839Y-65342773D01*
X70625216Y-65288198D01*
X70618022Y-65218700D01*
X70649545Y-65156345D01*
X70668837Y-65139628D01*
X70854401Y-65009695D01*
X71021495Y-64842601D01*
X71157035Y-64649030D01*
X71256903Y-64434863D01*
X71318063Y-64206608D01*
X71338659Y-63971200D01*
X71318063Y-63735792D01*
X71256903Y-63507537D01*
X71157035Y-63293371D01*
X71021495Y-63099799D01*
X70899181Y-62977485D01*
X70865696Y-62916162D01*
X70870680Y-62846470D01*
X70912552Y-62790537D01*
X70943528Y-62773622D01*
X71075089Y-62724552D01*
X71190188Y-62638388D01*
X71276352Y-62523289D01*
X71326599Y-62388571D01*
X71332645Y-62332332D01*
X71333000Y-62325718D01*
X71333000Y-61681200D01*
X70416686Y-61681200D01*
X70442493Y-61641044D01*
X70483000Y-61503089D01*
X70483000Y-61359311D01*
X70442493Y-61221356D01*
X70416686Y-61181200D01*
X71333000Y-61181200D01*
X71333000Y-60536681D01*
X71332645Y-60530067D01*
X71326599Y-60473828D01*
X71276352Y-60339110D01*
X71190188Y-60224011D01*
X71075089Y-60137847D01*
X70940371Y-60087600D01*
X70884132Y-60081554D01*
X70877518Y-60081200D01*
X70233000Y-60081200D01*
X70233000Y-60995698D01*
X70125315Y-60946520D01*
X70018763Y-60931200D01*
X69947237Y-60931200D01*
X69840685Y-60946520D01*
X69733000Y-60995698D01*
X69733000Y-60081200D01*
X69088482Y-60081200D01*
X69081867Y-60081554D01*
X69025628Y-60087600D01*
X68890910Y-60137847D01*
X68775811Y-60224011D01*
X68689647Y-60339110D01*
X68639400Y-60473828D01*
X68633354Y-60530067D01*
X68633000Y-60536681D01*
X68633000Y-61181200D01*
X69549314Y-61181200D01*
X69523507Y-61221356D01*
X69483000Y-61359311D01*
X69483000Y-61503089D01*
X69523507Y-61641044D01*
X69549314Y-61681200D01*
X68633000Y-61681200D01*
X68633000Y-62325718D01*
X68633354Y-62332332D01*
X68639400Y-62388571D01*
X68689647Y-62523289D01*
X68775811Y-62638388D01*
X68890911Y-62724552D01*
X69022471Y-62773622D01*
X69078404Y-62815494D01*
X69102821Y-62880958D01*
X69087969Y-62949231D01*
X69066819Y-62977485D01*
X68944503Y-63099801D01*
X68809349Y-63292823D01*
X68754772Y-63336448D01*
X68707774Y-63345700D01*
X66311544Y-63345700D01*
X66291037Y-63343435D01*
X66220927Y-63345639D01*
X66217032Y-63345700D01*
X66189450Y-63345700D01*
X66185605Y-63346185D01*
X66185580Y-63346187D01*
X66185453Y-63346204D01*
X66173833Y-63347118D01*
X66130169Y-63348490D01*
X66110929Y-63354080D01*
X66091881Y-63358025D01*
X66072009Y-63360535D01*
X66031399Y-63376613D01*
X66020354Y-63380394D01*
X65978410Y-63392581D01*
X65961165Y-63402779D01*
X65943704Y-63411333D01*
X65925067Y-63418712D01*
X65889731Y-63444385D01*
X65879974Y-63450795D01*
X65842380Y-63473029D01*
X65828213Y-63487196D01*
X65813424Y-63499826D01*
X65797213Y-63511604D01*
X65769372Y-63545258D01*
X65761511Y-63553897D01*
X65402229Y-63913181D01*
X65340906Y-63946666D01*
X65314548Y-63949500D01*
X65255352Y-63949500D01*
X65070197Y-63988855D01*
X64897269Y-64065848D01*
X64744129Y-64177110D01*
X64617466Y-64317783D01*
X64522820Y-64481715D01*
X64464326Y-64661742D01*
X64444540Y-64850000D01*
X64464326Y-65038257D01*
X64522820Y-65218284D01*
X64617466Y-65382216D01*
X64744129Y-65522889D01*
X64897267Y-65634150D01*
X64909953Y-65639798D01*
X65039189Y-65697338D01*
X65092425Y-65742587D01*
X65112747Y-65809436D01*
X65093702Y-65876660D01*
X65041336Y-65922916D01*
X65023354Y-65929692D01*
X65013410Y-65932581D01*
X64996169Y-65942778D01*
X64978697Y-65951338D01*
X64960066Y-65958714D01*
X64924738Y-65984381D01*
X64914980Y-65990791D01*
X64877379Y-66013029D01*
X64863210Y-66027198D01*
X64848422Y-66039828D01*
X64832213Y-66051605D01*
X64804372Y-66085258D01*
X64796511Y-66093896D01*
X63752228Y-67138181D01*
X63690905Y-67171666D01*
X63664547Y-67174500D01*
X63605352Y-67174500D01*
X63420197Y-67213855D01*
X63247269Y-67290848D01*
X63094129Y-67402110D01*
X62967466Y-67542783D01*
X62872820Y-67706715D01*
X62814326Y-67886742D01*
X62794540Y-68075000D01*
X25000500Y-68075000D01*
X25000500Y-67384578D01*
X31219500Y-67384578D01*
X31219501Y-67387872D01*
X31219853Y-67391152D01*
X31219854Y-67391159D01*
X31225909Y-67447483D01*
X31276204Y-67582331D01*
X31362454Y-67697546D01*
X31477669Y-67783796D01*
X31612517Y-67834091D01*
X31672127Y-67840500D01*
X34367872Y-67840499D01*
X34427483Y-67834091D01*
X34562331Y-67783796D01*
X34677546Y-67697546D01*
X34763796Y-67582331D01*
X34814091Y-67447483D01*
X34820500Y-67387873D01*
X34820499Y-64692128D01*
X34814091Y-64632517D01*
X34763796Y-64497669D01*
X34677546Y-64382454D01*
X34562331Y-64296204D01*
X34427483Y-64245909D01*
X34367873Y-64239500D01*
X34364550Y-64239500D01*
X31675439Y-64239500D01*
X31675420Y-64239500D01*
X31672128Y-64239501D01*
X31668848Y-64239853D01*
X31668840Y-64239854D01*
X31612515Y-64245909D01*
X31477669Y-64296204D01*
X31362454Y-64382454D01*
X31276204Y-64497668D01*
X31225909Y-64632516D01*
X31224134Y-64649030D01*
X31219500Y-64692127D01*
X31219500Y-64695448D01*
X31219500Y-64695449D01*
X31219500Y-67384560D01*
X31219500Y-67384578D01*
X25000500Y-67384578D01*
X25000500Y-55003033D01*
X25995325Y-55003033D01*
X26014310Y-55389500D01*
X26014906Y-55395553D01*
X26071681Y-55778294D01*
X26072867Y-55784253D01*
X26166882Y-56159586D01*
X26168649Y-56165409D01*
X26298995Y-56529701D01*
X26301327Y-56535334D01*
X26466758Y-56885108D01*
X26469629Y-56890477D01*
X26668549Y-57222355D01*
X26671917Y-57227396D01*
X26902417Y-57538189D01*
X26906275Y-57542891D01*
X27000068Y-57646376D01*
X27000069Y-57646376D01*
X28061418Y-56585026D01*
X28069908Y-56596711D01*
X28285249Y-56826025D01*
X28417838Y-56935712D01*
X27353622Y-57999929D01*
X27353622Y-57999930D01*
X27457108Y-58093724D01*
X27461810Y-58097582D01*
X27772603Y-58328082D01*
X27777644Y-58331450D01*
X28109522Y-58530370D01*
X28114891Y-58533241D01*
X28464665Y-58698672D01*
X28470298Y-58701004D01*
X28834590Y-58831350D01*
X28840413Y-58833117D01*
X29215746Y-58927132D01*
X29221705Y-58928318D01*
X29604446Y-58985093D01*
X29610499Y-58985689D01*
X29996967Y-59004675D01*
X30003033Y-59004675D01*
X30389500Y-58985689D01*
X30395553Y-58985093D01*
X30778294Y-58928318D01*
X30784253Y-58927132D01*
X31159586Y-58833117D01*
X31165409Y-58831350D01*
X31529701Y-58701004D01*
X31535334Y-58698672D01*
X31885108Y-58533241D01*
X31890477Y-58530370D01*
X32222355Y-58331450D01*
X32227396Y-58328082D01*
X32538189Y-58097582D01*
X32542880Y-58093733D01*
X32646376Y-57999929D01*
X31582160Y-56935713D01*
X31714751Y-56826025D01*
X31930092Y-56596711D01*
X31938580Y-56585027D01*
X32999929Y-57646376D01*
X33093733Y-57542880D01*
X33097582Y-57538189D01*
X33328082Y-57227396D01*
X33331450Y-57222355D01*
X33530370Y-56890477D01*
X33533241Y-56885108D01*
X33698672Y-56535334D01*
X33701004Y-56529701D01*
X33831350Y-56165409D01*
X33833117Y-56159586D01*
X33927132Y-55784253D01*
X33928318Y-55778294D01*
X33985093Y-55395553D01*
X33985689Y-55389500D01*
X34004675Y-55003033D01*
X34004675Y-54996966D01*
X33987875Y-54655000D01*
X68896389Y-54655000D01*
X68916804Y-54940429D01*
X68977629Y-55220041D01*
X69077634Y-55488163D01*
X69214772Y-55739313D01*
X69240791Y-55774070D01*
X69386261Y-55968395D01*
X69588605Y-56170739D01*
X69760414Y-56299354D01*
X69817686Y-56342227D01*
X69957435Y-56418535D01*
X70068839Y-56479367D01*
X70336954Y-56579369D01*
X70336957Y-56579369D01*
X70336958Y-56579370D01*
X70389217Y-56590738D01*
X70616572Y-56640196D01*
X70902000Y-56660610D01*
X71187428Y-56640196D01*
X71467046Y-56579369D01*
X71735161Y-56479367D01*
X71986315Y-56342226D01*
X72215395Y-56170739D01*
X72417739Y-55968395D01*
X72589226Y-55739315D01*
X72726367Y-55488161D01*
X72826369Y-55220046D01*
X72887196Y-54940428D01*
X72907610Y-54655000D01*
X99316389Y-54655000D01*
X99336804Y-54940429D01*
X99397629Y-55220041D01*
X99497634Y-55488163D01*
X99634772Y-55739313D01*
X99660791Y-55774070D01*
X99806261Y-55968395D01*
X100008605Y-56170739D01*
X100180415Y-56299354D01*
X100237686Y-56342227D01*
X100377435Y-56418535D01*
X100488839Y-56479367D01*
X100756954Y-56579369D01*
X100756957Y-56579369D01*
X100756958Y-56579370D01*
X100809217Y-56590738D01*
X101036572Y-56640196D01*
X101322000Y-56660610D01*
X101607428Y-56640196D01*
X101887046Y-56579369D01*
X102155161Y-56479367D01*
X102406315Y-56342226D01*
X102635395Y-56170739D01*
X102837739Y-55968395D01*
X103009226Y-55739315D01*
X103146367Y-55488161D01*
X103246369Y-55220046D01*
X103293577Y-55003033D01*
X105995325Y-55003033D01*
X106014310Y-55389500D01*
X106014906Y-55395553D01*
X106071681Y-55778294D01*
X106072867Y-55784253D01*
X106166882Y-56159586D01*
X106168649Y-56165409D01*
X106298995Y-56529701D01*
X106301327Y-56535334D01*
X106466758Y-56885108D01*
X106469629Y-56890477D01*
X106668549Y-57222355D01*
X106671917Y-57227396D01*
X106902417Y-57538189D01*
X106906275Y-57542891D01*
X107000068Y-57646376D01*
X107000069Y-57646376D01*
X108061418Y-56585026D01*
X108069908Y-56596711D01*
X108285249Y-56826025D01*
X108417838Y-56935712D01*
X107353622Y-57999929D01*
X107353622Y-57999930D01*
X107457108Y-58093724D01*
X107461810Y-58097582D01*
X107772603Y-58328082D01*
X107777644Y-58331450D01*
X108109522Y-58530370D01*
X108114891Y-58533241D01*
X108464665Y-58698672D01*
X108470298Y-58701004D01*
X108834590Y-58831350D01*
X108840413Y-58833117D01*
X109215746Y-58927132D01*
X109221705Y-58928318D01*
X109604446Y-58985093D01*
X109610499Y-58985689D01*
X109996967Y-59004675D01*
X110003033Y-59004675D01*
X110389500Y-58985689D01*
X110395553Y-58985093D01*
X110778294Y-58928318D01*
X110784253Y-58927132D01*
X111159586Y-58833117D01*
X111165409Y-58831350D01*
X111529701Y-58701004D01*
X111535334Y-58698672D01*
X111885108Y-58533241D01*
X111890477Y-58530370D01*
X112222355Y-58331450D01*
X112227396Y-58328082D01*
X112538189Y-58097582D01*
X112542880Y-58093733D01*
X112646376Y-57999929D01*
X111582160Y-56935713D01*
X111714751Y-56826025D01*
X111930092Y-56596711D01*
X111938580Y-56585027D01*
X112999929Y-57646376D01*
X113093733Y-57542880D01*
X113097582Y-57538189D01*
X113328082Y-57227396D01*
X113331450Y-57222355D01*
X113530370Y-56890477D01*
X113533241Y-56885108D01*
X113698672Y-56535334D01*
X113701004Y-56529701D01*
X113831350Y-56165409D01*
X113833117Y-56159586D01*
X113927132Y-55784253D01*
X113928318Y-55778294D01*
X113985093Y-55395553D01*
X113985689Y-55389500D01*
X114004675Y-55003033D01*
X114004675Y-54996966D01*
X113985689Y-54610499D01*
X113985093Y-54604446D01*
X113928318Y-54221705D01*
X113927132Y-54215746D01*
X113833117Y-53840413D01*
X113831350Y-53834590D01*
X113701004Y-53470298D01*
X113698672Y-53464665D01*
X113533241Y-53114891D01*
X113530370Y-53109522D01*
X113331450Y-52777644D01*
X113328082Y-52772603D01*
X113097582Y-52461810D01*
X113093724Y-52457108D01*
X112999930Y-52353622D01*
X112999929Y-52353622D01*
X111938579Y-53414971D01*
X111930092Y-53403289D01*
X111714751Y-53173975D01*
X111582160Y-53064286D01*
X112646376Y-52000069D01*
X112646376Y-52000068D01*
X112542891Y-51906275D01*
X112538189Y-51902417D01*
X112227396Y-51671917D01*
X112222355Y-51668549D01*
X111890477Y-51469629D01*
X111885108Y-51466758D01*
X111535334Y-51301327D01*
X111529701Y-51298995D01*
X111165409Y-51168649D01*
X111159586Y-51166882D01*
X110784253Y-51072867D01*
X110778294Y-51071681D01*
X110395553Y-51014906D01*
X110389500Y-51014310D01*
X110003033Y-50995325D01*
X109996967Y-50995325D01*
X109610499Y-51014310D01*
X109604446Y-51014906D01*
X109221705Y-51071681D01*
X109215746Y-51072867D01*
X108840413Y-51166882D01*
X108834590Y-51168649D01*
X108470298Y-51298995D01*
X108464665Y-51301327D01*
X108114891Y-51466758D01*
X108109522Y-51469629D01*
X107777644Y-51668549D01*
X107772603Y-51671917D01*
X107461807Y-51902418D01*
X107457105Y-51906277D01*
X107353622Y-52000068D01*
X107353622Y-52000069D01*
X108417839Y-53064286D01*
X108285249Y-53173975D01*
X108069908Y-53403289D01*
X108061419Y-53414972D01*
X107000069Y-52353622D01*
X107000068Y-52353622D01*
X106906277Y-52457105D01*
X106902418Y-52461807D01*
X106671917Y-52772603D01*
X106668549Y-52777644D01*
X106469629Y-53109522D01*
X106466758Y-53114891D01*
X106301327Y-53464665D01*
X106298995Y-53470298D01*
X106168649Y-53834590D01*
X106166882Y-53840413D01*
X106072867Y-54215746D01*
X106071681Y-54221705D01*
X106014906Y-54604446D01*
X106014310Y-54610499D01*
X105995325Y-54996966D01*
X105995325Y-55003033D01*
X103293577Y-55003033D01*
X103307196Y-54940428D01*
X103327610Y-54655000D01*
X103307196Y-54369572D01*
X103246369Y-54089954D01*
X103146367Y-53821839D01*
X103009226Y-53570685D01*
X102837739Y-53341605D01*
X102635395Y-53139261D01*
X102520854Y-53053517D01*
X102406313Y-52967772D01*
X102155163Y-52830634D01*
X102155162Y-52830633D01*
X102155161Y-52830633D01*
X101887046Y-52730631D01*
X101887041Y-52730629D01*
X101607429Y-52669804D01*
X101322000Y-52649389D01*
X101036570Y-52669804D01*
X100756958Y-52730629D01*
X100488836Y-52830634D01*
X100237686Y-52967772D01*
X100008602Y-53139263D01*
X99806263Y-53341602D01*
X99634772Y-53570686D01*
X99497634Y-53821836D01*
X99397629Y-54089958D01*
X99336804Y-54369570D01*
X99316389Y-54655000D01*
X72907610Y-54655000D01*
X72887196Y-54369572D01*
X72826369Y-54089954D01*
X72726367Y-53821839D01*
X72589226Y-53570685D01*
X72417739Y-53341605D01*
X72215395Y-53139261D01*
X72100854Y-53053517D01*
X71986313Y-52967772D01*
X71735163Y-52830634D01*
X71735162Y-52830633D01*
X71735161Y-52830633D01*
X71467046Y-52730631D01*
X71467041Y-52730629D01*
X71187429Y-52669804D01*
X70902000Y-52649389D01*
X70616570Y-52669804D01*
X70336958Y-52730629D01*
X70068836Y-52830634D01*
X69817686Y-52967772D01*
X69588602Y-53139263D01*
X69386263Y-53341602D01*
X69214772Y-53570686D01*
X69077634Y-53821836D01*
X68977629Y-54089958D01*
X68916804Y-54369570D01*
X68896389Y-54655000D01*
X33987875Y-54655000D01*
X33985689Y-54610499D01*
X33985093Y-54604446D01*
X33928318Y-54221705D01*
X33927132Y-54215746D01*
X33833117Y-53840413D01*
X33831350Y-53834590D01*
X33701004Y-53470298D01*
X33698672Y-53464665D01*
X33533241Y-53114891D01*
X33530370Y-53109522D01*
X33331450Y-52777644D01*
X33328082Y-52772603D01*
X33097582Y-52461810D01*
X33093724Y-52457108D01*
X32999930Y-52353622D01*
X32999929Y-52353622D01*
X31938579Y-53414971D01*
X31930092Y-53403289D01*
X31714751Y-53173975D01*
X31582160Y-53064286D01*
X32646376Y-52000069D01*
X32646376Y-52000068D01*
X32542891Y-51906275D01*
X32538189Y-51902417D01*
X32227396Y-51671917D01*
X32222355Y-51668549D01*
X31890477Y-51469629D01*
X31885108Y-51466758D01*
X31535334Y-51301327D01*
X31529701Y-51298995D01*
X31165409Y-51168649D01*
X31159586Y-51166882D01*
X30784253Y-51072867D01*
X30778294Y-51071681D01*
X30395553Y-51014906D01*
X30389500Y-51014310D01*
X30003033Y-50995325D01*
X29996967Y-50995325D01*
X29610499Y-51014310D01*
X29604446Y-51014906D01*
X29221705Y-51071681D01*
X29215746Y-51072867D01*
X28840413Y-51166882D01*
X28834590Y-51168649D01*
X28470298Y-51298995D01*
X28464665Y-51301327D01*
X28114891Y-51466758D01*
X28109522Y-51469629D01*
X27777644Y-51668549D01*
X27772603Y-51671917D01*
X27461807Y-51902418D01*
X27457105Y-51906277D01*
X27353622Y-52000068D01*
X27353622Y-52000069D01*
X28417839Y-53064286D01*
X28285249Y-53173975D01*
X28069908Y-53403289D01*
X28061419Y-53414972D01*
X27000069Y-52353622D01*
X27000068Y-52353622D01*
X26906277Y-52457105D01*
X26902418Y-52461807D01*
X26671917Y-52772603D01*
X26668549Y-52777644D01*
X26469629Y-53109522D01*
X26466758Y-53114891D01*
X26301327Y-53464665D01*
X26298995Y-53470298D01*
X26168649Y-53834590D01*
X26166882Y-53840413D01*
X26072867Y-54215746D01*
X26071681Y-54221705D01*
X26014906Y-54604446D01*
X26014310Y-54610499D01*
X25995325Y-54996966D01*
X25995325Y-55003033D01*
X25000500Y-55003033D01*
X25000500Y-50124500D01*
X25020185Y-50057461D01*
X25072989Y-50011706D01*
X25124500Y-50000500D01*
X114875500Y-50000500D01*
X114942539Y-50020185D01*
G37*
G04 #@! TD.AperFunction*
M02*
