G04 #@! TF.GenerationSoftware,KiCad,Pcbnew,7.0.2*
G04 #@! TF.CreationDate,2023-05-19T11:13:35+02:00*
G04 #@! TF.ProjectId,baseboard,62617365-626f-4617-9264-2e6b69636164,rev?*
G04 #@! TF.SameCoordinates,Original*
G04 #@! TF.FileFunction,Paste,Top*
G04 #@! TF.FilePolarity,Positive*
%FSLAX46Y46*%
G04 Gerber Fmt 4.6, Leading zero omitted, Abs format (unit mm)*
G04 Created by KiCad (PCBNEW 7.0.2) date 2023-05-19 11:13:35*
%MOMM*%
%LPD*%
G01*
G04 APERTURE LIST*
G04 Aperture macros list*
%AMRoundRect*
0 Rectangle with rounded corners*
0 $1 Rounding radius*
0 $2 $3 $4 $5 $6 $7 $8 $9 X,Y pos of 4 corners*
0 Add a 4 corners polygon primitive as box body*
4,1,4,$2,$3,$4,$5,$6,$7,$8,$9,$2,$3,0*
0 Add four circle primitives for the rounded corners*
1,1,$1+$1,$2,$3*
1,1,$1+$1,$4,$5*
1,1,$1+$1,$6,$7*
1,1,$1+$1,$8,$9*
0 Add four rect primitives between the rounded corners*
20,1,$1+$1,$2,$3,$4,$5,0*
20,1,$1+$1,$4,$5,$6,$7,0*
20,1,$1+$1,$6,$7,$8,$9,0*
20,1,$1+$1,$8,$9,$2,$3,0*%
G04 Aperture macros list end*
%ADD10R,1.100000X0.250000*%
%ADD11RoundRect,0.250000X0.350000X0.450000X-0.350000X0.450000X-0.350000X-0.450000X0.350000X-0.450000X0*%
%ADD12RoundRect,0.250000X-0.450000X0.350000X-0.450000X-0.350000X0.450000X-0.350000X0.450000X0.350000X0*%
%ADD13RoundRect,0.250000X-0.337500X-0.475000X0.337500X-0.475000X0.337500X0.475000X-0.337500X0.475000X0*%
%ADD14RoundRect,0.250000X-0.325000X-0.450000X0.325000X-0.450000X0.325000X0.450000X-0.325000X0.450000X0*%
%ADD15RoundRect,0.250000X0.475000X-0.337500X0.475000X0.337500X-0.475000X0.337500X-0.475000X-0.337500X0*%
%ADD16RoundRect,0.250000X-0.350000X-0.450000X0.350000X-0.450000X0.350000X0.450000X-0.350000X0.450000X0*%
%ADD17RoundRect,0.150000X-0.512500X-0.150000X0.512500X-0.150000X0.512500X0.150000X-0.512500X0.150000X0*%
%ADD18RoundRect,0.250000X0.337500X0.475000X-0.337500X0.475000X-0.337500X-0.475000X0.337500X-0.475000X0*%
G04 APERTURE END LIST*
D10*
X72789000Y-152543000D03*
X72789000Y-153043000D03*
X72789000Y-153543000D03*
X72789000Y-154043000D03*
X72789000Y-154543000D03*
X77089000Y-154543000D03*
X77089000Y-154043000D03*
X77089000Y-153543000D03*
X77089000Y-153043000D03*
X77089000Y-152543000D03*
D11*
X83559000Y-153813000D03*
X81559000Y-153813000D03*
D12*
X42750000Y-77500000D03*
X42750000Y-79500000D03*
D13*
X48087500Y-57050000D03*
X50162500Y-57050000D03*
D14*
X48050000Y-60375000D03*
X50100000Y-60375000D03*
D11*
X69335000Y-151781000D03*
X67335000Y-151781000D03*
D15*
X57175000Y-60512500D03*
X57175000Y-58437500D03*
D12*
X42750000Y-71500000D03*
X42750000Y-73500000D03*
D16*
X67335000Y-153720800D03*
X69335000Y-153720800D03*
D13*
X36562500Y-59900000D03*
X38637500Y-59900000D03*
D15*
X53550000Y-60512500D03*
X53550000Y-58437500D03*
D17*
X41625000Y-59000000D03*
X41625000Y-59950000D03*
X41625000Y-60900000D03*
X43900000Y-60900000D03*
X43900000Y-59950000D03*
X43900000Y-59000000D03*
D18*
X83596500Y-155845000D03*
X81521500Y-155845000D03*
D11*
X83559000Y-151781000D03*
X81559000Y-151781000D03*
M02*
