M48
; DRILL file {KiCad 7.0.2} date Fri May 19 11:13:52 2023
; FORMAT={-:-/ absolute / metric / decimal}
; #@! TF.CreationDate,2023-05-19T11:13:52+02:00
; #@! TF.GenerationSoftware,Kicad,Pcbnew,7.0.2
; #@! TF.FileFunction,Plated,1,2,PTH
FMAT,2
METRIC
; #@! TA.AperFunction,Plated,PTH,ViaDrill
T1C0.400
; #@! TA.AperFunction,Plated,PTH,ComponentDrill
T2C1.000
; #@! TA.AperFunction,Plated,PTH,ComponentDrill
T3C1.016
; #@! TA.AperFunction,Plated,PTH,ComponentDrill
T4C1.300
; #@! TA.AperFunction,Plated,PTH,ComponentDrill
T5C5.000
%
G90
G05
T1
X46.5Y-79.25
X63.7Y-68.075
X65.35Y-64.85
X68.25Y-148.25
X70.612Y-155.194
X71.0Y-153.767
X71.882Y-155.956
X73.025Y-156.337
X78.232Y-151.003
X78.956Y-149.987
X82.25Y-93.25
T2
X59.85Y-83.9
X59.85Y-86.44
X59.85Y-90.4
X59.85Y-92.94
X59.85Y-96.9
X59.85Y-99.44
X59.85Y-105.025
X59.85Y-107.565
X59.85Y-111.525
X59.85Y-114.065
X59.85Y-118.025
X59.85Y-120.565
X59.875Y-126.15
X59.875Y-128.69
X59.875Y-132.65
X59.875Y-135.19
X59.875Y-139.15
X59.875Y-141.69
X69.983Y-61.431
X69.983Y-63.971
X69.983Y-66.511
X69.983Y-69.051
T3
X70.104Y-91.966
X70.104Y-94.506
X70.104Y-97.046
X70.104Y-99.586
X70.104Y-102.126
X70.104Y-104.666
X70.104Y-107.206
X70.104Y-109.746
X70.104Y-112.286
X70.104Y-114.826
X70.104Y-117.366
X70.104Y-119.906
X70.104Y-122.446
X70.104Y-124.986
X90.424Y-91.966
X90.424Y-94.506
X90.424Y-97.046
X90.424Y-99.586
X90.424Y-102.126
X90.424Y-104.666
X90.424Y-107.206
X90.424Y-109.746
X90.424Y-112.286
X90.424Y-114.826
X90.424Y-117.366
X90.424Y-119.906
X90.424Y-122.446
X90.424Y-124.986
T4
X33.02Y-66.04
X33.02Y-71.04
X105.029Y-133.604
X105.029Y-138.604
X105.029Y-143.604
X105.08Y-99.394
X105.08Y-104.394
X105.08Y-109.394
X105.207Y-82.757
X105.207Y-87.757
X105.207Y-92.757
X105.207Y-116.539
X105.207Y-121.539
X105.207Y-126.539
T5
X30.0Y-55.0
X30.0Y-153.0
X110.0Y-55.0
X110.0Y-153.0
T0
M30
